<svg width="0" height="0" class="hidden">
  <symbol xmlns="http://www.w3.org/2000/svg" viewBox="0 0 36.447 36.447" id="calendar">
    <g xmlns="http://www.w3.org/2000/svg" fill="#f9236f">
      <path d="M30.224 3.948h-1.098V2.75c0-1.517-1.197-2.75-2.67-2.75-1.474 0-2.67 1.233-2.67 2.75v1.197h-2.74V2.75c0-1.517-1.197-2.75-2.67-2.75-1.473 0-2.67 1.233-2.67 2.75v1.197h-2.74V2.75c0-1.517-1.197-2.75-2.67-2.75-1.473 0-2.67 1.233-2.67 2.75v1.197H6.224a4.255 4.255 0 00-4.25 4.25v24a4.255 4.255 0 004.25 4.25h24a4.255 4.255 0 004.25-4.25v-24a4.255 4.255 0 00-4.25-4.249zM25.286 2.75c0-.689.525-1.25 1.17-1.25.646 0 1.17.561 1.17 1.25v4.896c0 .689-.524 1.25-1.17 1.25-.645 0-1.17-.561-1.17-1.25V2.75zm-8.08 0c0-.689.525-1.25 1.17-1.25s1.17.561 1.17 1.25v4.896c0 .689-.525 1.25-1.17 1.25s-1.17-.561-1.17-1.25V2.75zm-8.081 0c0-.689.525-1.25 1.17-1.25s1.17.561 1.17 1.25v4.896c0 .689-.525 1.25-1.17 1.25s-1.17-.561-1.17-1.25V2.75zm22.849 29.448c0 .965-.785 1.75-1.75 1.75h-24c-.965 0-1.75-.785-1.75-1.75v-22h27.5v22z" data-original="#000000"></path>
      <path data-original="#000000" d="M6.724 14.626h4.595v4.089H6.724zm6.133 0h4.596v4.089h-4.596zm6.138 0h4.595v4.089h-4.595zm6.133 0h4.596v4.089h-4.596zM6.724 20.084h4.595v4.086H6.724zm6.133 0h4.596v4.086h-4.596zm6.138 0h4.595v4.086h-4.595zm6.133 0h4.596v4.086h-4.596zM6.724 25.54h4.595v4.086H6.724zm6.133 0h4.596v4.086h-4.596zm6.138 0h4.595v4.086h-4.595zm6.133 0h4.596v4.086h-4.596z"></path>
    </g>
  </symbol>
  <symbol xmlns="http://www.w3.org/2000/svg" viewBox="0 0 426.667 426.667" id="cart">
    <path d="M128 341.333c-23.573 0-42.453 19.093-42.453 42.667s18.88 42.667 42.453 42.667c23.573 0 42.667-19.093 42.667-42.667S151.573 341.333 128 341.333zm23.467-106.666H310.4c16 0 29.973-8.853 37.333-21.973L424 74.24c1.707-2.987 2.667-6.507 2.667-10.24 0-11.84-9.6-21.333-21.333-21.333H89.92L69.653 0H0v42.667h42.667L119.36 204.48l-28.8 52.267c-3.307 6.187-5.227 13.12-5.227 20.587C85.333 300.907 104.427 320 128 320h256v-42.667H137.067c-2.987 0-5.333-2.347-5.333-5.333 0-.96.213-1.813.64-2.56l19.093-34.773zm189.866 106.666c-23.573 0-42.453 19.093-42.453 42.667s18.88 42.667 42.453 42.667C364.907 426.667 384 407.573 384 384s-19.093-42.667-42.667-42.667z"></path>
  </symbol>
  <symbol xmlns="http://www.w3.org/2000/svg" viewBox="0 0 373.12 373.12" id="search">
    <path d="M266.667 234.667h-16.96l-5.867-5.867c20.907-24.213 33.493-55.68 33.493-90.133C277.333 62.08 215.253 0 138.667 0S0 62.08 0 138.667s62.08 138.667 138.667 138.667c34.453 0 65.92-12.587 90.133-33.387l5.867 5.867v16.853L341.333 373.12l31.787-31.787-106.453-106.666zm-128 0c-53.013 0-96-42.987-96-96s42.987-96 96-96 96 42.987 96 96-42.987 96-96 96z"></path>
  </symbol>
  <symbol xmlns="http://www.w3.org/2000/svg" viewBox="0 0 512 512" id="support">
    <path d="M366 396c-5.52 0-10 4.48-10 10s4.48 10 10 10 10-4.48 10-10-4.48-10-10-10z" fill="#f9236f" data-original="#000000" xmlns="http://www.w3.org/2000/svg"></path>
    <path d="M390.622 363.663l-47.53-15.84-17.063-34.127c15.372-15.646 26.045-36.348 29.644-57.941L357.801 243H376c16.542 0 30-13.458 30-30v-63C406 67.29 338.71 0 256 0c-82.922 0-150 67.097-150 150v63c0 13.036 8.361 24.152 20 28.28V253c0 16.542 13.458 30 30 30h8.782a108.487 108.487 0 0016.774 25.974 103.947 103.947 0 004.406 4.741l-17.054 34.108-47.531 15.841C66.112 382.092 26 440.271 26 502c0 5.523 4.477 10 10 10h440c5.522 0 10-4.477 10-10 0-61.729-40.111-119.908-95.378-138.337zM386 213c0 5.514-4.486 10-10 10h-15.262c2.542-19.69 4.236-40.643 4.917-61.28.02-.582.036-1.148.054-1.72H386v53zm-250 10c-5.514 0-10-4.486-10-10v-53h20.298c.033 1.043.068 2.091.107 3.146l.004.107v.009c.7 20.072 2.372 40.481 4.856 59.737H136V223zm20 40c-5.514 0-10-4.486-10-10v-10h8.198l2.128 12.759a105.57 105.57 0 001.482 7.241H156zm-9.983-123H126.38C131.445 72.979 187.377 20 256 20c68.318 0 124.496 52.972 129.619 120h-19.635c-.72-55.227-45.693-100-101.033-100h-17.9c-55.339 0-100.315 44.773-101.034 100zM247.05 60h17.9c44.809 0 81.076 36.651 81.05 81.41 0 3.147-.025 5.887-.078 8.38l-.001.098-12.508-1.787c-33.98-4.852-66.064-20.894-90.342-45.172A10.003 10.003 0 00236 100c-26.856 0-52.564 12.236-69.558 32.908C170.63 92.189 205.053 60 247.05 60zm-68.51 203c-5.006-16.653-10.734-65.653-12-97.053l13.459-17.946c12.361-16.476 31.592-26.713 52.049-27.888 26.917 25.616 61.739 42.532 98.537 47.786l14.722 2.104c-.984 20.885-2.995 41.843-5.876 61.118l-.003.02c-.916 6.197-1.638 10.185-3.482 21.324-5.296 31.765-28.998 60.49-60.287 68.313a81.338 81.338 0 01-39.313 0c-19.537-4.884-37.451-18.402-49.012-37.778h20.386c4.128 11.639 15.243 20 28.28 20h20c16.575 0 30-13.424 30-30 0-16.542-13.458-30-30-30h-20c-13.327 0-24.278 8.608-28.297 20H178.54zm56.619 78.016A101.171 101.171 0 00256 343.2c5.471 0 10.943-.458 16.353-1.346l-17.67 18.687-19.524-19.525zm5.776 34.063l-31.718 33.542a381.013 381.013 0 01-22.389-51.917l11.911-23.822 42.196 42.197zm70.631-45.585l13.604 27.209a380.908 380.908 0 01-22.392 51.933l-33.948-33.948 42.736-45.194zM226 273c0-5.521 4.478-10 10-10h20c5.514 0 10 4.486 10 10 0 5.522-4.479 10-10 10h-20c-5.514 0-10-4.486-10-10zM46.4 492c3.963-49.539 36.932-94.567 81.302-109.363l42.094-14.028a400.869 400.869 0 0028.463 61.74l.056.101.001.002a400.974 400.974 0 0027.372 41.799L237.99 492H46.4zm209.6-8.914l-13.562-21.773a10.133 10.133 0 00-.486-.711 381.284 381.284 0 01-22.532-33.662l35.663-37.714 37.578 37.578A380.863 380.863 0 01270.05 460.6c-.49.653.205-.376-14.05 22.486zM274.01 492l12.301-19.748a400.826 400.826 0 0027.564-42.132c.05-.088.097-.178.147-.266l.018-.032a400.543 400.543 0 0028.164-61.213l42.093 14.028c44.371 14.796 77.34 59.824 81.303 109.363H274.01z" fill="#f9236f" data-original="#000000" xmlns="http://www.w3.org/2000/svg"></path>
    <path d="M435.546 451.531c-6.683-13.377-16.472-25.261-28.309-34.367-4.378-3.369-10.656-2.55-14.023 1.828-3.368 4.378-2.549 10.656 1.828 14.024 9.454 7.273 17.272 16.766 22.611 27.453 2.473 4.949 8.483 6.941 13.415 4.477 4.94-2.468 6.945-8.474 4.478-13.415z" fill="#f9236f" data-original="#000000" xmlns="http://www.w3.org/2000/svg"></path>
  </symbol>
  <symbol xmlns="http://www.w3.org/2000/svg" viewBox="0 0 512.001 512.001" id="airplane">
    <path d="M101.501 384.806L25.402 324.95c-4.157-3.127-5.518-8.647-3.023-12.26 12.197-17.664 35.693-23.697 58.779-15.092l68.824 39.041-48.481 48.167zm25.538 25.538l60.013 76.256c3.127 4.157 8.647 5.518 12.26 3.023l4.537-3.133c14.941-10.316 20.043-30.19 12.765-49.717l-41.251-74.754-48.324 48.325z" fill="#f9236f" data-original="#ff2c5c" xmlns="http://www.w3.org/2000/svg"></path>
    <path xmlns="http://www.w3.org/2000/svg" fill="#e62753" data-original="#e62753" d="M105.941 311.655l-43.056 42.777 38.616 30.374 48.482-48.168z"></path>
    <path d="M122.118 150.38c-9.557-9.557-10.313-24.785-1.775-35.262 12.212-14.986 27.512-31.673 36.69-40.851 12.556-12.556 13.653-11.056 27.068-19.279a5.01 5.01 0 016.162.719l26.529 26.529a5.011 5.011 0 01.719 6.162c-8.223 13.415-6.723 14.511-19.279 27.067-9.178 9.178-25.865 24.478-40.851 36.69-10.478 8.537-25.707 7.782-35.263-1.775zm239.504 239.504c-9.557-9.557-10.313-24.785-1.775-35.262 12.212-14.986 27.512-31.673 36.69-40.851 12.556-12.556 13.652-11.056 27.068-19.279a5.01 5.01 0 016.162.719l26.529 26.529a5.011 5.011 0 01.719 6.162c-8.223 13.415-6.723 14.511-19.279 27.068-9.178 9.178-25.865 24.478-40.851 36.69-10.478 8.537-25.706 7.781-35.263-1.776z" fill="#c3d3db" data-original="#c3d3db" xmlns="http://www.w3.org/2000/svg"></path>
    <path xmlns="http://www.w3.org/2000/svg" d="M241.923 240.842l93.887-93.887-290.842-91.38c-5.989-1.529-11.943-.073-15.905 3.889L4.491 84.036c-8.229 8.229-4.697 23.314 6.92 29.552l230.512 127.254z" fill="#f9236f" data-original="#ff2c5c"></path>
    <path xmlns="http://www.w3.org/2000/svg" fill="#e62753" data-original="#e62753" d="M270.094 126.308l-83.816 83.816 55.645 30.718 93.887-93.887z"></path>
    <path xmlns="http://www.w3.org/2000/svg" d="M271.16 270.079l93.887-93.887 91.38 290.842c1.529 5.989.073 11.943-3.889 15.905l-24.572 24.572c-8.229 8.229-23.314 4.697-29.552-6.92L271.16 270.079z" fill="#f9236f" data-original="#ff2c5c"></path>
    <path xmlns="http://www.w3.org/2000/svg" d="M448.371 136.723L290.643 294.45c-26.466 26.466-54.603 51.152-84.061 73.75l-75.044 57.568c-17.373 13.328-38.035 14.94-49.14 3.835-11.105-11.105-9.493-31.767 3.835-49.14l57.568-75.044c22.598-29.458 47.283-57.594 73.75-84.061L375.279 63.631c21.562-21.562 46.326-39.527 72.487-51.861 22.529-10.621 46.476-17.275 58.108-5.643 11.632 11.632 4.978 35.579-5.643 58.108-12.333 26.163-30.298 50.926-51.86 72.488z" fill="#e0f3fc" data-original="#e0f3fc"></path>
    <path xmlns="http://www.w3.org/2000/svg" d="M505.874 6.128C501.78 2.034 496.156.212 489.609.025c.471 12.114-4.782 27.478-11.739 42.234-12.333 26.161-30.298 50.925-51.861 72.487L268.282 272.473c-26.466 26.466-54.603 51.152-84.061 73.749l-75.044 57.568c-11.05 8.477-23.428 12.206-33.834 10.946.782 5.775 3.113 10.924 7.055 14.866 11.105 11.105 31.767 9.493 49.14-3.835l75.044-57.568c29.458-22.598 57.594-47.283 84.061-73.75l157.728-157.726c21.562-21.562 39.527-46.326 51.861-72.487 10.62-22.529 17.274-46.476 5.642-58.108z" fill="#c3d3db" data-original="#c3d3db"></path>
    <path xmlns="http://www.w3.org/2000/svg" d="M461.44 106.517l-5.386 5.386c-5.002 5.002-60.956-50.952-55.954-55.954l5.386-5.386c3.395-3.395 8.378-4.465 12.436-2.67 20.219 8.944 37.244 25.97 46.189 46.189 1.793 4.057.724 9.04-2.671 12.435z" fill="#51c4f5" data-original="#51c4f5"></path>
    <path xmlns="http://www.w3.org/2000/svg" d="M99.44 420.062a7.474 7.474 0 01-5.303-2.197 7.5 7.5 0 010-10.606l65.496-65.496a7.5 7.5 0 0110.606 0 7.5 7.5 0 010 10.606l-65.496 65.496a7.476 7.476 0 01-5.303 2.197z" fill="#e62753" data-original="#e62753"></path>
  </symbol>
  <symbol xmlns="http://www.w3.org/2000/svg" viewBox="0 0 511.987 511" id="star-off">
    <path xmlns="http://www.w3.org/2000/svg" d="M114.594 491.14c-5.61 0-11.18-1.75-15.934-5.187a27.223 27.223 0 01-10.582-28.094l32.938-145.09L9.312 214.81a27.188 27.188 0 01-7.976-28.907 27.208 27.208 0 0123.402-18.71l147.797-13.419L230.97 17.027C235.277 6.98 245.089.492 255.992.492s20.715 6.488 25.024 16.512l58.433 136.77 147.774 13.417c10.882.98 20.054 8.344 23.425 18.711 3.372 10.368.254 21.739-7.957 28.907L390.988 312.75l32.938 145.086c2.414 10.668-1.727 21.7-10.578 28.098-8.832 6.398-20.61 6.89-29.91 1.3l-127.446-76.16-127.445 76.203c-4.309 2.559-9.11 3.864-13.953 3.864zm141.398-112.874c4.844 0 9.64 1.3 13.953 3.859l120.278 71.938-31.086-136.942a27.21 27.21 0 018.62-26.516l105.473-92.5-139.543-12.671a27.18 27.18 0 01-22.613-16.493L255.992 39.895 200.844 168.96c-3.883 9.195-12.524 15.512-22.547 16.43L38.734 198.062l105.47 92.5c7.554 6.614 10.858 16.77 8.62 26.54l-31.062 136.937 120.277-71.914c4.309-2.559 9.11-3.86 13.953-3.86zm-84.586-221.848s0 .023-.023.043zm169.13-.063l.023.043c0-.023 0-.023-.024-.043zm0 0" fill="#ffc808" data-original="#000000"></path>
  </symbol>
  <symbol xmlns="http://www.w3.org/2000/svg" viewBox="0 0 511.987 511" id="star-on">
    <path xmlns="http://www.w3.org/2000/svg" d="M510.652 185.902a27.158 27.158 0 00-23.425-18.71l-147.774-13.419-58.433-136.77C276.71 6.98 266.898.494 255.996.494s-20.715 6.487-25.023 16.534l-58.434 136.746-147.797 13.418a27.208 27.208 0 00-23.402 18.71c-3.371 10.368-.258 21.739 7.957 28.907l111.7 97.96-32.938 145.09c-2.41 10.668 1.73 21.696 10.582 28.094 4.757 3.438 10.324 5.188 15.937 5.188 4.84 0 9.64-1.305 13.95-3.883l127.468-76.184 127.422 76.184c9.324 5.61 21.078 5.097 29.91-1.305a27.223 27.223 0 0010.582-28.094l-32.937-145.09 111.699-97.94a27.224 27.224 0 007.98-28.927zm0 0" fill="#ffc808" data-original="#ffc107"></path>
  </symbol>
  <symbol xmlns="http://www.w3.org/2000/svg" viewBox="0 0 512 512" id="heart">
    <path xmlns="http://www.w3.org/2000/svg" d="M376.951 28.507h-.899c-66.027 0-102.942 48.32-120.049 81.033-17.408-32.714-54.022-81.033-120.049-81.033h-1.199C63.324 29.108 3.792 90.032.191 167.164c-4.503 94.538 70.937 158.164 183.782 254.204 19.509 16.807 40.218 34.515 62.126 53.423l9.905 8.703 9.905-8.703c21.608-18.908 42.617-36.616 62.126-53.423 112.844-96.04 188.278-159.666 183.775-254.204-3.604-77.133-63.429-138.057-134.859-138.657z" data-original="#ff3636"></path>
    <path xmlns="http://www.w3.org/2000/svg" d="M511.808 167.164c4.503 94.538-70.93 158.164-183.775 254.204-19.509 16.807-40.518 34.515-62.126 53.423l-9.905 8.703V109.54c17.107-32.714 54.022-81.033 120.049-81.033h.899c71.431.6 131.256 61.524 134.858 138.657z"  data-original="#f40000"></path>
  </symbol>
  <symbol xmlns="http://www.w3.org/2000/svg" viewBox="0 0 511.626 511.626" id="comment">
    <path d="M477.371 127.44c-22.843-28.074-53.871-50.249-93.076-66.523-39.204-16.272-82.035-24.41-128.478-24.41-34.643 0-67.762 4.805-99.357 14.417-31.595 9.611-58.812 22.602-81.653 38.97-22.845 16.37-41.018 35.832-54.534 58.385C6.757 170.833 0 194.484 0 219.228c0 28.549 8.61 55.3 25.837 80.234 17.227 24.931 40.778 45.871 70.664 62.811-2.096 7.611-4.57 14.846-7.426 21.693-2.855 6.852-5.424 12.474-7.708 16.851-2.286 4.377-5.376 9.233-9.281 14.562-3.899 5.328-6.849 9.089-8.848 11.275-1.997 2.19-5.28 5.812-9.851 10.849-4.565 5.048-7.517 8.329-8.848 9.855-.193.089-.953.952-2.285 2.567-1.331 1.615-1.999 2.423-1.999 2.423l-1.713 2.566c-.953 1.431-1.381 2.334-1.287 2.707.096.373-.094 1.331-.57 2.851-.477 1.526-.428 2.669.142 3.433v.284c.765 3.429 2.43 6.187 4.998 8.277 2.568 2.092 5.474 2.95 8.708 2.563 12.375-1.522 23.223-3.606 32.548-6.276 49.87-12.758 93.649-35.782 131.334-69.097 14.272 1.522 28.072 2.286 41.396 2.286 46.442 0 89.271-8.138 128.479-24.417 39.208-16.272 70.233-38.448 93.072-66.517 22.843-28.062 34.263-58.663 34.263-91.781.001-33.119-11.418-63.718-34.254-91.787z" data-original="#000000" xmlns="http://www.w3.org/2000/svg"></path>
  </symbol>
</svg>