<svg width="0" height="0" class="hidden">
  <symbol xmlns="http://www.w3.org/2000/svg" viewBox="0 0 36.447 36.447" id="calendar">
    <g xmlns="http://www.w3.org/2000/svg" fill="#f9236f">
      <path d="M30.224 3.948h-1.098V2.75c0-1.517-1.197-2.75-2.67-2.75-1.474 0-2.67 1.233-2.67 2.75v1.197h-2.74V2.75c0-1.517-1.197-2.75-2.67-2.75-1.473 0-2.67 1.233-2.67 2.75v1.197h-2.74V2.75c0-1.517-1.197-2.75-2.67-2.75-1.473 0-2.67 1.233-2.67 2.75v1.197H6.224a4.255 4.255 0 00-4.25 4.25v24a4.255 4.255 0 004.25 4.25h24a4.255 4.255 0 004.25-4.25v-24a4.255 4.255 0 00-4.25-4.249zM25.286 2.75c0-.689.525-1.25 1.17-1.25.646 0 1.17.561 1.17 1.25v4.896c0 .689-.524 1.25-1.17 1.25-.645 0-1.17-.561-1.17-1.25V2.75zm-8.08 0c0-.689.525-1.25 1.17-1.25s1.17.561 1.17 1.25v4.896c0 .689-.525 1.25-1.17 1.25s-1.17-.561-1.17-1.25V2.75zm-8.081 0c0-.689.525-1.25 1.17-1.25s1.17.561 1.17 1.25v4.896c0 .689-.525 1.25-1.17 1.25s-1.17-.561-1.17-1.25V2.75zm22.849 29.448c0 .965-.785 1.75-1.75 1.75h-24c-.965 0-1.75-.785-1.75-1.75v-22h27.5v22z" data-original="#000000"></path>
      <path data-original="#000000" d="M6.724 14.626h4.595v4.089H6.724zm6.133 0h4.596v4.089h-4.596zm6.138 0h4.595v4.089h-4.595zm6.133 0h4.596v4.089h-4.596zM6.724 20.084h4.595v4.086H6.724zm6.133 0h4.596v4.086h-4.596zm6.138 0h4.595v4.086h-4.595zm6.133 0h4.596v4.086h-4.596zM6.724 25.54h4.595v4.086H6.724zm6.133 0h4.596v4.086h-4.596zm6.138 0h4.595v4.086h-4.595zm6.133 0h4.596v4.086h-4.596z"></path>
    </g>
  </symbol>
  <symbol xmlns="http://www.w3.org/2000/svg" viewBox="0 0 426.667 426.667" id="cart">
    <path d="M128 341.333c-23.573 0-42.453 19.093-42.453 42.667s18.88 42.667 42.453 42.667c23.573 0 42.667-19.093 42.667-42.667S151.573 341.333 128 341.333zm23.467-106.666H310.4c16 0 29.973-8.853 37.333-21.973L424 74.24c1.707-2.987 2.667-6.507 2.667-10.24 0-11.84-9.6-21.333-21.333-21.333H89.92L69.653 0H0v42.667h42.667L119.36 204.48l-28.8 52.267c-3.307 6.187-5.227 13.12-5.227 20.587C85.333 300.907 104.427 320 128 320h256v-42.667H137.067c-2.987 0-5.333-2.347-5.333-5.333 0-.96.213-1.813.64-2.56l19.093-34.773zm189.866 106.666c-23.573 0-42.453 19.093-42.453 42.667s18.88 42.667 42.453 42.667C364.907 426.667 384 407.573 384 384s-19.093-42.667-42.667-42.667z"></path>
  </symbol>
  <symbol xmlns="http://www.w3.org/2000/svg" viewBox="0 0 373.12 373.12" id="search">
    <path d="M266.667 234.667h-16.96l-5.867-5.867c20.907-24.213 33.493-55.68 33.493-90.133C277.333 62.08 215.253 0 138.667 0S0 62.08 0 138.667s62.08 138.667 138.667 138.667c34.453 0 65.92-12.587 90.133-33.387l5.867 5.867v16.853L341.333 373.12l31.787-31.787-106.453-106.666zm-128 0c-53.013 0-96-42.987-96-96s42.987-96 96-96 96 42.987 96 96-42.987 96-96 96z"></path>
  </symbol>
  <symbol xmlns="http://www.w3.org/2000/svg" viewBox="0 0 512 512" id="support">
    <path d="M366 396c-5.52 0-10 4.48-10 10s4.48 10 10 10 10-4.48 10-10-4.48-10-10-10z" fill="#f9236f" data-original="#000000" xmlns="http://www.w3.org/2000/svg"></path>
    <path d="M390.622 363.663l-47.53-15.84-17.063-34.127c15.372-15.646 26.045-36.348 29.644-57.941L357.801 243H376c16.542 0 30-13.458 30-30v-63C406 67.29 338.71 0 256 0c-82.922 0-150 67.097-150 150v63c0 13.036 8.361 24.152 20 28.28V253c0 16.542 13.458 30 30 30h8.782a108.487 108.487 0 0016.774 25.974 103.947 103.947 0 004.406 4.741l-17.054 34.108-47.531 15.841C66.112 382.092 26 440.271 26 502c0 5.523 4.477 10 10 10h440c5.522 0 10-4.477 10-10 0-61.729-40.111-119.908-95.378-138.337zM386 213c0 5.514-4.486 10-10 10h-15.262c2.542-19.69 4.236-40.643 4.917-61.28.02-.582.036-1.148.054-1.72H386v53zm-250 10c-5.514 0-10-4.486-10-10v-53h20.298c.033 1.043.068 2.091.107 3.146l.004.107v.009c.7 20.072 2.372 40.481 4.856 59.737H136V223zm20 40c-5.514 0-10-4.486-10-10v-10h8.198l2.128 12.759a105.57 105.57 0 001.482 7.241H156zm-9.983-123H126.38C131.445 72.979 187.377 20 256 20c68.318 0 124.496 52.972 129.619 120h-19.635c-.72-55.227-45.693-100-101.033-100h-17.9c-55.339 0-100.315 44.773-101.034 100zM247.05 60h17.9c44.809 0 81.076 36.651 81.05 81.41 0 3.147-.025 5.887-.078 8.38l-.001.098-12.508-1.787c-33.98-4.852-66.064-20.894-90.342-45.172A10.003 10.003 0 00236 100c-26.856 0-52.564 12.236-69.558 32.908C170.63 92.189 205.053 60 247.05 60zm-68.51 203c-5.006-16.653-10.734-65.653-12-97.053l13.459-17.946c12.361-16.476 31.592-26.713 52.049-27.888 26.917 25.616 61.739 42.532 98.537 47.786l14.722 2.104c-.984 20.885-2.995 41.843-5.876 61.118l-.003.02c-.916 6.197-1.638 10.185-3.482 21.324-5.296 31.765-28.998 60.49-60.287 68.313a81.338 81.338 0 01-39.313 0c-19.537-4.884-37.451-18.402-49.012-37.778h20.386c4.128 11.639 15.243 20 28.28 20h20c16.575 0 30-13.424 30-30 0-16.542-13.458-30-30-30h-20c-13.327 0-24.278 8.608-28.297 20H178.54zm56.619 78.016A101.171 101.171 0 00256 343.2c5.471 0 10.943-.458 16.353-1.346l-17.67 18.687-19.524-19.525zm5.776 34.063l-31.718 33.542a381.013 381.013 0 01-22.389-51.917l11.911-23.822 42.196 42.197zm70.631-45.585l13.604 27.209a380.908 380.908 0 01-22.392 51.933l-33.948-33.948 42.736-45.194zM226 273c0-5.521 4.478-10 10-10h20c5.514 0 10 4.486 10 10 0 5.522-4.479 10-10 10h-20c-5.514 0-10-4.486-10-10zM46.4 492c3.963-49.539 36.932-94.567 81.302-109.363l42.094-14.028a400.869 400.869 0 0028.463 61.74l.056.101.001.002a400.974 400.974 0 0027.372 41.799L237.99 492H46.4zm209.6-8.914l-13.562-21.773a10.133 10.133 0 00-.486-.711 381.284 381.284 0 01-22.532-33.662l35.663-37.714 37.578 37.578A380.863 380.863 0 01270.05 460.6c-.49.653.205-.376-14.05 22.486zM274.01 492l12.301-19.748a400.826 400.826 0 0027.564-42.132c.05-.088.097-.178.147-.266l.018-.032a400.543 400.543 0 0028.164-61.213l42.093 14.028c44.371 14.796 77.34 59.824 81.303 109.363H274.01z" fill="#f9236f" data-original="#000000" xmlns="http://www.w3.org/2000/svg"></path>
    <path d="M435.546 451.531c-6.683-13.377-16.472-25.261-28.309-34.367-4.378-3.369-10.656-2.55-14.023 1.828-3.368 4.378-2.549 10.656 1.828 14.024 9.454 7.273 17.272 16.766 22.611 27.453 2.473 4.949 8.483 6.941 13.415 4.477 4.94-2.468 6.945-8.474 4.478-13.415z" fill="#f9236f" data-original="#000000" xmlns="http://www.w3.org/2000/svg"></path>
  </symbol>
  <symbol xmlns="http://www.w3.org/2000/svg" viewBox="0 0 512.001 512.001" id="airplane">
    <path d="M101.501 384.806L25.402 324.95c-4.157-3.127-5.518-8.647-3.023-12.26 12.197-17.664 35.693-23.697 58.779-15.092l68.824 39.041-48.481 48.167zm25.538 25.538l60.013 76.256c3.127 4.157 8.647 5.518 12.26 3.023l4.537-3.133c14.941-10.316 20.043-30.19 12.765-49.717l-41.251-74.754-48.324 48.325z" fill="#f9236f" data-original="#ff2c5c" xmlns="http://www.w3.org/2000/svg"></path>
    <path xmlns="http://www.w3.org/2000/svg" fill="#e62753" data-original="#e62753" d="M105.941 311.655l-43.056 42.777 38.616 30.374 48.482-48.168z"></path>
    <path d="M122.118 150.38c-9.557-9.557-10.313-24.785-1.775-35.262 12.212-14.986 27.512-31.673 36.69-40.851 12.556-12.556 13.653-11.056 27.068-19.279a5.01 5.01 0 016.162.719l26.529 26.529a5.011 5.011 0 01.719 6.162c-8.223 13.415-6.723 14.511-19.279 27.067-9.178 9.178-25.865 24.478-40.851 36.69-10.478 8.537-25.707 7.782-35.263-1.775zm239.504 239.504c-9.557-9.557-10.313-24.785-1.775-35.262 12.212-14.986 27.512-31.673 36.69-40.851 12.556-12.556 13.652-11.056 27.068-19.279a5.01 5.01 0 016.162.719l26.529 26.529a5.011 5.011 0 01.719 6.162c-8.223 13.415-6.723 14.511-19.279 27.068-9.178 9.178-25.865 24.478-40.851 36.69-10.478 8.537-25.706 7.781-35.263-1.776z" fill="#c3d3db" data-original="#c3d3db" xmlns="http://www.w3.org/2000/svg"></path>
    <path xmlns="http://www.w3.org/2000/svg" d="M241.923 240.842l93.887-93.887-290.842-91.38c-5.989-1.529-11.943-.073-15.905 3.889L4.491 84.036c-8.229 8.229-4.697 23.314 6.92 29.552l230.512 127.254z" fill="#f9236f" data-original="#ff2c5c"></path>
    <path xmlns="http://www.w3.org/2000/svg" fill="#e62753" data-original="#e62753" d="M270.094 126.308l-83.816 83.816 55.645 30.718 93.887-93.887z"></path>
    <path xmlns="http://www.w3.org/2000/svg" d="M271.16 270.079l93.887-93.887 91.38 290.842c1.529 5.989.073 11.943-3.889 15.905l-24.572 24.572c-8.229 8.229-23.314 4.697-29.552-6.92L271.16 270.079z" fill="#f9236f" data-original="#ff2c5c"></path>
    <path xmlns="http://www.w3.org/2000/svg" d="M448.371 136.723L290.643 294.45c-26.466 26.466-54.603 51.152-84.061 73.75l-75.044 57.568c-17.373 13.328-38.035 14.94-49.14 3.835-11.105-11.105-9.493-31.767 3.835-49.14l57.568-75.044c22.598-29.458 47.283-57.594 73.75-84.061L375.279 63.631c21.562-21.562 46.326-39.527 72.487-51.861 22.529-10.621 46.476-17.275 58.108-5.643 11.632 11.632 4.978 35.579-5.643 58.108-12.333 26.163-30.298 50.926-51.86 72.488z" fill="#e0f3fc" data-original="#e0f3fc"></path>
    <path xmlns="http://www.w3.org/2000/svg" d="M505.874 6.128C501.78 2.034 496.156.212 489.609.025c.471 12.114-4.782 27.478-11.739 42.234-12.333 26.161-30.298 50.925-51.861 72.487L268.282 272.473c-26.466 26.466-54.603 51.152-84.061 73.749l-75.044 57.568c-11.05 8.477-23.428 12.206-33.834 10.946.782 5.775 3.113 10.924 7.055 14.866 11.105 11.105 31.767 9.493 49.14-3.835l75.044-57.568c29.458-22.598 57.594-47.283 84.061-73.75l157.728-157.726c21.562-21.562 39.527-46.326 51.861-72.487 10.62-22.529 17.274-46.476 5.642-58.108z" fill="#c3d3db" data-original="#c3d3db"></path>
    <path xmlns="http://www.w3.org/2000/svg" d="M461.44 106.517l-5.386 5.386c-5.002 5.002-60.956-50.952-55.954-55.954l5.386-5.386c3.395-3.395 8.378-4.465 12.436-2.67 20.219 8.944 37.244 25.97 46.189 46.189 1.793 4.057.724 9.04-2.671 12.435z" fill="#51c4f5" data-original="#51c4f5"></path>
    <path xmlns="http://www.w3.org/2000/svg" d="M99.44 420.062a7.474 7.474 0 01-5.303-2.197 7.5 7.5 0 010-10.606l65.496-65.496a7.5 7.5 0 0110.606 0 7.5 7.5 0 010 10.606l-65.496 65.496a7.476 7.476 0 01-5.303 2.197z" fill="#e62753" data-original="#e62753"></path>
  </symbol>
  <symbol xmlns="http://www.w3.org/2000/svg" viewBox="0 0 511.987 511" id="star-off">
    <path xmlns="http://www.w3.org/2000/svg" d="M114.594 491.14c-5.61 0-11.18-1.75-15.934-5.187a27.223 27.223 0 01-10.582-28.094l32.938-145.09L9.312 214.81a27.188 27.188 0 01-7.976-28.907 27.208 27.208 0 0123.402-18.71l147.797-13.419L230.97 17.027C235.277 6.98 245.089.492 255.992.492s20.715 6.488 25.024 16.512l58.433 136.77 147.774 13.417c10.882.98 20.054 8.344 23.425 18.711 3.372 10.368.254 21.739-7.957 28.907L390.988 312.75l32.938 145.086c2.414 10.668-1.727 21.7-10.578 28.098-8.832 6.398-20.61 6.89-29.91 1.3l-127.446-76.16-127.445 76.203c-4.309 2.559-9.11 3.864-13.953 3.864zm141.398-112.874c4.844 0 9.64 1.3 13.953 3.859l120.278 71.938-31.086-136.942a27.21 27.21 0 018.62-26.516l105.473-92.5-139.543-12.671a27.18 27.18 0 01-22.613-16.493L255.992 39.895 200.844 168.96c-3.883 9.195-12.524 15.512-22.547 16.43L38.734 198.062l105.47 92.5c7.554 6.614 10.858 16.77 8.62 26.54l-31.062 136.937 120.277-71.914c4.309-2.559 9.11-3.86 13.953-3.86zm-84.586-221.848s0 .023-.023.043zm169.13-.063l.023.043c0-.023 0-.023-.024-.043zm0 0" fill="#ffc808" data-original="#000000"></path>
  </symbol>
  <symbol xmlns="http://www.w3.org/2000/svg" viewBox="0 0 511.987 511" id="star-on">
    <path xmlns="http://www.w3.org/2000/svg" d="M510.652 185.902a27.158 27.158 0 00-23.425-18.71l-147.774-13.419-58.433-136.77C276.71 6.98 266.898.494 255.996.494s-20.715 6.487-25.023 16.534l-58.434 136.746-147.797 13.418a27.208 27.208 0 00-23.402 18.71c-3.371 10.368-.258 21.739 7.957 28.907l111.7 97.96-32.938 145.09c-2.41 10.668 1.73 21.696 10.582 28.094 4.757 3.438 10.324 5.188 15.937 5.188 4.84 0 9.64-1.305 13.95-3.883l127.468-76.184 127.422 76.184c9.324 5.61 21.078 5.097 29.91-1.305a27.223 27.223 0 0010.582-28.094l-32.937-145.09 111.699-97.94a27.224 27.224 0 007.98-28.927zm0 0" fill="#ffc808" data-original="#ffc107"></path>
  </symbol>
  <symbol xmlns="http://www.w3.org/2000/svg" viewBox="0 0 512 512" id="heart">
    <path xmlns="http://www.w3.org/2000/svg" d="M376.951 28.507h-.899c-66.027 0-102.942 48.32-120.049 81.033-17.408-32.714-54.022-81.033-120.049-81.033h-1.199C63.324 29.108 3.792 90.032.191 167.164c-4.503 94.538 70.937 158.164 183.782 254.204 19.509 16.807 40.218 34.515 62.126 53.423l9.905 8.703 9.905-8.703c21.608-18.908 42.617-36.616 62.126-53.423 112.844-96.04 188.278-159.666 183.775-254.204-3.604-77.133-63.429-138.057-134.859-138.657z" data-original="#ff3636"></path>
    <path xmlns="http://www.w3.org/2000/svg" d="M511.808 167.164c4.503 94.538-70.93 158.164-183.775 254.204-19.509 16.807-40.518 34.515-62.126 53.423l-9.905 8.703V109.54c17.107-32.714 54.022-81.033 120.049-81.033h.899c71.431.6 131.256 61.524 134.858 138.657z"  data-original="#f40000"></path>
  </symbol>
  <symbol xmlns="http://www.w3.org/2000/svg" viewBox="0 0 511.626 511.626" id="comment">
    <path d="M477.371 127.44c-22.843-28.074-53.871-50.249-93.076-66.523-39.204-16.272-82.035-24.41-128.478-24.41-34.643 0-67.762 4.805-99.357 14.417-31.595 9.611-58.812 22.602-81.653 38.97-22.845 16.37-41.018 35.832-54.534 58.385C6.757 170.833 0 194.484 0 219.228c0 28.549 8.61 55.3 25.837 80.234 17.227 24.931 40.778 45.871 70.664 62.811-2.096 7.611-4.57 14.846-7.426 21.693-2.855 6.852-5.424 12.474-7.708 16.851-2.286 4.377-5.376 9.233-9.281 14.562-3.899 5.328-6.849 9.089-8.848 11.275-1.997 2.19-5.28 5.812-9.851 10.849-4.565 5.048-7.517 8.329-8.848 9.855-.193.089-.953.952-2.285 2.567-1.331 1.615-1.999 2.423-1.999 2.423l-1.713 2.566c-.953 1.431-1.381 2.334-1.287 2.707.096.373-.094 1.331-.57 2.851-.477 1.526-.428 2.669.142 3.433v.284c.765 3.429 2.43 6.187 4.998 8.277 2.568 2.092 5.474 2.95 8.708 2.563 12.375-1.522 23.223-3.606 32.548-6.276 49.87-12.758 93.649-35.782 131.334-69.097 14.272 1.522 28.072 2.286 41.396 2.286 46.442 0 89.271-8.138 128.479-24.417 39.208-16.272 70.233-38.448 93.072-66.517 22.843-28.062 34.263-58.663 34.263-91.781.001-33.119-11.418-63.718-34.254-91.787z" data-original="#000000" xmlns="http://www.w3.org/2000/svg"></path>
  </symbol>

   <symbol xmlns="http://www.w3.org/2000/svg" viewBox="0 0 24 24" id="facebook">
    <path d="M15.997 3.985h2.191V.169C17.81.117 16.51 0 14.996 0c-3.159 0-5.323 1.987-5.323 5.639V9H6.187v4.266h3.486V24h4.274V13.267h3.345l.531-4.266h-3.877V6.062c.001-1.233.333-2.077 2.051-2.077z"></path>
  </symbol>
  <symbol xmlns="http://www.w3.org/2000/svg" viewBox="0 0 24 24" id="vimeo">
    <path d="M20.497 1.505c-3.328-.121-5.576 1.787-6.762 5.694a4.312 4.312 0 011.777-.395c1.219 0 1.758.697 1.614 2.082-.072.839-.608 2.059-1.612 3.664-1.009 1.605-1.763 2.409-2.265 2.409-1.522 0-2.437-7.284-2.747-9.273-.431-2.765-1.58-4.058-3.447-3.877C5.341 1.972 2.35 5.058 0 7.15l1.129 1.472C2.204 7.86 2.831 7.478 3.01 7.478c1.871 0 2.777 6.367 4.23 11.102.975 2.613 2.144 3.92 3.553 3.92 2.264 0 5.022-2.144 8.29-6.434 3.155-4.107 4.789-7.344 4.894-9.705l.013-.01c.134-3.165-1.021-4.785-3.493-4.846z"></path>
  </symbol>
  <symbol xmlns="http://www.w3.org/2000/svg" viewBox="0 0 24 24" id="pinterest">
    <path d="M12.326 0C5.747.001 2.25 4.216 2.25 8.812c0 2.131 1.191 4.79 3.098 5.633.544.245.472-.054.94-1.844a.425.425 0 00-.102-.417c-2.726-3.153-.532-9.635 5.751-9.635 9.093 0 7.394 12.582 1.582 12.582-1.498 0-2.614-1.176-2.261-2.631.428-1.733 1.266-3.596 1.266-4.845 0-3.148-4.69-2.681-4.69 1.49 0 1.289.456 2.159.456 2.159S6.781 17.4 6.501 18.539c-.474 1.928.064 5.049.111 5.318.029.148.195.195.288.073.149-.195 1.973-2.797 2.484-4.678.186-.685.949-3.465.949-3.465.503.908 1.953 1.668 3.498 1.668 4.596 0 7.918-4.04 7.918-9.053C21.733 3.596 17.62 0 12.326 0z"></path>
  </symbol>

  <symbol xmlns="http://www.w3.org/2000/svg" viewBox="0 0 94 94" id="google-plus">
    <path d="M89 0H5a5 5 0 00-5 5v84a5 5 0 005 5h84a5 5 0 005-5V5a5 5 0 00-5-5zM31.088 85.553c-14.553 0-21.571-6.935-21.571-14.381 0-3.617 1.803-8.742 7.724-12.264 6.219-3.822 14.652-4.322 19.17-4.633C35 52.465 33.4 50.557 33.4 47.441c0-1.708.502-2.713.999-3.922-1.105.103-2.204.202-3.208.202-10.634 0-16.654-7.95-16.654-15.792 0-4.62 2.104-9.752 6.418-13.473 5.724-4.726 13.541-6.008 18.966-6.008h19.771l-6.525 4.099H46.95c2.307 1.909 7.117 5.931 7.117 13.578 0 7.436-4.209 10.964-8.421 14.28-1.306 1.304-2.813 2.712-2.813 4.929 0 2.207 1.508 3.413 2.608 4.325l3.617 2.809c4.414 3.72 8.428 7.138 8.428 14.083-.004 9.454-9.14 19.002-26.398 19.002zM84.482 45.77H74.395v10.117H69.43V45.77H59.391v-5.02H69.43V30.695h4.965V40.75h10.088v5.02z"></path>
    <path d="M45.24 30.749c0-7.243-4.317-18.503-12.64-18.503-2.616 0-5.42 1.307-7.029 3.32-1.707 2.114-2.204 4.821-2.204 7.443 0 6.734 3.911 17.894 12.544 17.894 2.507 0 5.207-1.2 6.821-2.811 2.308-2.321 2.508-5.532 2.508-7.343zm-5.42 26.446c-.8-.102-1.302-.102-2.305-.102-.904 0-6.324.197-10.537 1.615-2.208.799-8.627 3.214-8.627 10.354 0 7.141 6.922 12.276 17.658 12.276 9.635 0 14.755-4.637 14.755-10.862 0-5.142-3.313-7.849-10.944-13.281z"></path>
  </symbol>

  <symbol xmlns="http://www.w3.org/2000/svg" viewBox="0 0 512 512" id="envelope">
    <path d="M10.688 95.156C80.958 154.667 204.26 259.365 240.5 292.01c4.865 4.406 10.083 6.646 15.5 6.646 5.406 0 10.615-2.219 15.469-6.604 36.271-32.677 159.573-137.385 229.844-196.896 4.375-3.698 5.042-10.198 1.5-14.719C494.625 69.99 482.417 64 469.333 64H42.667c-13.083 0-25.292 5.99-33.479 16.438-3.542 4.52-2.875 11.02 1.5 14.718z"></path>
    <path d="M505.813 127.406a10.618 10.618 0 00-11.375 1.542C416.51 195.01 317.052 279.688 285.76 307.885c-17.563 15.854-41.938 15.854-59.542-.021-33.354-30.052-145.042-125-208.656-178.917a10.674 10.674 0 00-11.375-1.542A10.674 10.674 0 000 137.083v268.25C0 428.865 19.135 448 42.667 448h426.667C492.865 448 512 428.865 512 405.333v-268.25a10.66 10.66 0 00-6.187-9.677z"></path>
  </symbol>
  <symbol xmlns="http://www.w3.org/2000/svg" viewBox="0 0 384 384" id="phone">
    <path d="M353.188 252.052c-23.51 0-46.594-3.677-68.469-10.906-10.719-3.656-23.896-.302-30.438 6.417l-43.177 32.594c-50.073-26.729-80.917-57.563-107.281-107.26l31.635-42.052c8.219-8.208 11.167-20.198 7.635-31.448-7.26-21.99-10.948-45.063-10.948-68.583C132.146 13.823 118.323 0 101.333 0h-70.52C13.823 0 0 13.823 0 30.813 0 225.563 158.438 384 353.188 384c16.99 0 30.813-13.823 30.813-30.813v-70.323c-.001-16.989-13.824-30.812-30.813-30.812z"></path>
  </symbol>
  <symbol xmlns="http://www.w3.org/2000/svg" viewBox="0 0 512 512" id="address">
    <path d="M407.579 87.677C376.506 34.053 321.314 1.292 259.939.04c-2.62-.054-5.257-.054-7.878 0-61.374 1.252-116.566 34.013-147.64 87.637-31.762 54.812-32.631 120.652-2.325 176.123l126.963 232.387c.057.103.114.206.173.308 5.586 9.709 15.593 15.505 26.77 15.505 11.176 0 21.183-5.797 26.768-15.505.059-.102.116-.205.173-.308L409.906 263.8c30.304-55.471 29.435-121.311-2.327-176.123zM256 232c-39.701 0-72-32.299-72-72s32.299-72 72-72 72 32.299 72 72-32.298 72-72 72z"></path>
  </symbol>
  <symbol xmlns="http://www.w3.org/2000/svg" viewBox="0 0 496.8 496.8" id="diners-club">
    <path d="M165.6 176c0 24.8 15.2 45.6 36.8 53.6V122.4c-21.6 8-36.8 28.8-36.8 53.6z" fill="#006ac9"></path>
    <path d="M243.2 122.4v107.2c21.6-8 36.8-29.6 36.8-53.6 0-24.8-15.2-45.6-36.8-53.6z" fill="#004a97"></path>
    <path d="M243.2 229.6c21.6-8 36.8-29.6 36.8-53.6m-10.4-99.2h-46.4c-55.2 0-100 40.8-100 100 0 54.4 44.8 98.4 100 98.4h46.4c54.4 0 104-44 104-98.4-.8-59.2-50.4-100-104-100zm-46.4 189.6c-50.4 0-90.4-40.8-90.4-90.4 0-50.4 40.8-91.2 90.4-91.2 50.4 0 91.2 40.8 91.2 91.2-.8 50.4-41.6 90.4-91.2 90.4z" fill="#023563"></path>
    <path d="M20.8 343.2c0 8 5.6 8.8 11.2 8.8 22.4 0 30.4-16.8 30.4-32.8 0-20-12.8-33.6-32.8-33.6-4 0-6.4 0-8 .8v56.8h-.8zm-10.4-49.6c0-9.6-4.8-8.8-9.6-8.8v-2.4h30.4c27.2 0 41.6 18.4 41.6 36.8 0 10.4-6.4 36.8-43.2 36.8H0v-2.4c6.4-.8 9.6-.8 9.6-8v-52h.8zm78.4-2.4c-2.4 0-4.8-2.4-4.8-5.6 0-2.4 2.4-4.8 4.8-4.8s4.8 2.4 4.8 4.8c0 3.2-2.4 5.6-4.8 5.6m-11.2 61.6H80c3.2 0 4.8 0 4.8-3.2v-28.8c0-4.8-1.6-5.6-5.6-7.2V312c4.8-1.6 10.4-3.2 11.2-4 .8-.8 1.6-.8 1.6-.8.8 0 .8.8.8 1.6v40c0 3.2 2.4 3.2 5.6 3.2h1.6v2.4H77.6v-1.6zm32-31.2c0-4-.8-4.8-6.4-7.2v-1.6c4.8-1.6 8.8-3.2 13.6-4.8 0 0 .8 0 .8.8v7.2c5.6-4 11.2-8 18.4-8 8.8 0 12 6.4 12 14.4v27.2c0 3.2 2.4 3.2 5.6 3.2h1.6v2.4h-22.4v-2.4h1.6c3.2 0 4.8 0 4.8-3.2v-27.2c0-5.6-4-8.8-9.6-8.8-3.2 0-8.8 2.4-12 4.8v31.2c0 3.2 2.4 3.2 5.6 3.2h1.6v2.4h-22.4v-2.4h2.4c3.2 0 4.8 0 4.8-3.2v-28zm72 1.6c2.4 0 3.2-1.6 3.2-2.4 0-5.6-3.2-9.6-8.8-9.6-6.4 0-11.2 4.8-12 12h17.6zm-18.4 3.2v6.4c.8 9.6 7.2 18.4 15.2 18.4 5.6 0 10.4-3.2 14.4-7.2l1.6 1.6c-4.8 6.4-11.2 12-19.2 12-16.8 0-20-16-20-23.2 0-20.8 13.6-26.4 20.8-26.4 8.8 0 17.6 5.6 17.6 16.8v1.6h-30.4zm32.8 26.4h3.2c3.2 0 4.8 0 4.8-3.2V320c0-3.2-4-4-5.6-4.8v-1.6c8-3.2 12-5.6 12.8-5.6s.8 0 .8 1.6v9.6c2.4-4 7.2-10.4 13.6-10.4 2.4 0 5.6 1.6 5.6 5.6 0 3.2-1.6 5.6-4.8 5.6s-3.2-2.4-7.2-2.4c-1.6 0-8 2.4-8 8.8v24.8c0 3.2 2.4 3.2 4.8 3.2h5.6v2.4h-27.2v-4h1.6zm40.8-12c1.6 7.2 5.6 12.8 13.6 12.8 6.4 0 8.8-4 8.8-7.2 0-12-23.2-8-23.2-25.6 0-5.6 4.8-13.6 16-13.6 3.2 0 8 .8 12 3.2l.8 10.4h-2.4c-.8-6.4-4.8-10.4-11.2-10.4-4 0-8 2.4-8 7.2 0 12 24 8.8 24 24.8 0 7.2-5.6 14.4-18.4 14.4-4 0-8.8-1.6-12.8-3.2l-.8-12 1.6-.8zm124.8-40h-2.4c-1.6-12-10.4-16.8-22.4-16.8s-29.6 8-29.6 33.6c0 20.8 15.2 36 31.2 36 10.4 0 19.2-7.2 20.8-18.4l2.4.8-2.4 15.2c-4.8 2.4-16 5.6-23.2 5.6-24.8 0-40-16-40-39.2 0-21.6 19.2-36.8 40-36.8 8.8 0 16.8 2.4 24.8 5.6l.8 14.4zm4 52h1.6c3.2 0 4.8 0 4.8-3.2v-58.4c0-7.2-1.6-7.2-5.6-8v-1.6c4-1.6 8.8-3.2 11.2-4.8.8-.8 1.6-.8 2.4-.8s.8.8.8 1.6v72.8c0 3.2 2.4 3.2 5.6 3.2h1.6v2.4h-22.4v-3.2zm67.2-3.2c0 1.6.8 1.6 3.2 1.6h4v2.4c-4.8.8-12.8 2.4-15.2 3.2h-.8V348c-6.4 4.8-11.2 8.8-18.4 8.8-5.6 0-11.2-4-11.2-12.8v-27.2c0-2.4-.8-5.6-6.4-5.6v-1.6c4 0 12-.8 13.6-.8.8 0 .8.8.8 3.2v27.2c0 3.2 0 12 8.8 12 3.2 0 8-2.4 12.8-6.4v-28c0-2.4-4.8-3.2-8.8-4v-1.6c9.6-.8 15.2-1.6 16-1.6s.8.8.8 1.6v38.4h.8zm20.8-6.4c0 4 4 10.4 11.2 10.4 11.2 0 16-11.2 16-20 0-11.2-8.8-20.8-16.8-20.8-4 0-7.2 2.4-9.6 4.8v25.6h-.8zm0-28c4-3.2 9.6-7.2 16-7.2 12 0 19.2 10.4 19.2 22.4 0 13.6-10.4 27.2-24.8 27.2-8 0-12-2.4-14.4-4l-3.2 2.4-2.4-.8c.8-6.4 1.6-12 1.6-18.4V292c0-7.2-1.6-7.2-5.6-8v-1.6c4-1.6 8.8-3.2 11.2-4.8.8-.8 1.6-.8 2.4-.8s.8.8.8 1.6v36.8h-.8z" fill="#004a97"></path>
    <g fill="#006ac9">
      <path d="M.8 416h.8c2.4 0 4 0 4-3.2v-29.6c0-3.2-2.4-3.2-4-3.2H.8v-1.6h17.6v1.6h-.8c-2.4 0-4 0-4 3.2v29.6c0 3.2 1.6 3.2 4 3.2h.8v1.6H1.6V416H.8z"></path>
      <path d="M18.4 417.6V416h-.8c-2.4 0-4.8 0-4.8-3.2v-29.6c0-3.2 2.4-3.2 4.8-3.2h.8v-1.6H1.6v1.6h.8c2.4 0 4.8 0 4.8 3.2v29.6c0 3.2-2.4 3.2-4.8 3.2h-.8v1.6h16.8m0 .8H1.6V416h.8c2.4 0 4 0 4-3.2v-29.6c0-3.2-1.6-3.2-4-3.2H.8v-1.6h17.6v1.6h-.8c-2.4 0-4 0-4 3.2v29.6c0 3.2 1.6 3.2 4 3.2h.8v2.4zm39.2-12v-21.6c0-4.8-3.2-5.6-4.8-5.6h-1.6v-1.6h15.2v1.6h-.8c-2.4 0-4.8.8-4.8 7.2v31.2h-2.4l-29.6-32.8V408c0 4.8.8 6.4 5.6 6.4h.8v1.6H20h.8c4 0 4.8-2.4 4.8-7.2v-24c0-3.2-2.4-4.8-4.8-4.8v-1.6H32l25.6 28z"></path>
      <path d="M57.6 406.4zm0 0zm.8 12H60v-31.2c0-7.2 3.2-7.2 5.6-7.2h.8v-1.6H52v1.6h.8c1.6 0 5.6.8 5.6 5.6v21.6l-25.6-28.8H21.6v1.6h.8c2.4 0 5.6 2.4 5.6 5.6v24c0 4.8-1.6 7.2-5.6 7.2h-.8v1.6H36v-1.6h-1.6c-4.8 0-5.6-1.6-5.6-7.2v-24l29.6 32.8zm2.4.8h-2.4l-28.8-32v23.2c0 4.8.8 6.4 4.8 6.4H36v1.6H20.8V416h.8c4 0 4.8-2.4 4.8-7.2v-24c0-3.2-2.4-4.8-4.8-4.8H20v-1.6h12l24.8 28v-20.8c0-4.8-3.2-4.8-4.8-4.8h-.8v-1.6h15.2v1.6h-.8c-2.4 0-4.8 0-4.8 7.2v31.2zm14.4-38.4c-4 0-4.8.8-5.6 4.8H68c0-1.6.8-3.2.8-4.8V376h1.6c.8 1.6 1.6 1.6 3.2 1.6h29.6c1.6 0 3.2 0 3.2-1.6h1.6c0 1.6-.8 3.2-.8 4.8v4.8l-1.6.8c0-2.4 0-5.6-4-5.6H92v30.4c0 4 1.6 4.8 4.8 4.8h.8v1.6H78.4V416h.8c3.2 0 4.8 0 4.8-4.8v-30.4h-8.8z"></path>
      <path d="M97.6 418.4H78.4V416h.8c3.2 0 4.8 0 4.8-4.8v-30.4h-8.8 9.6v30.4c0 4.8-1.6 4.8-4.8 4.8h-.8v1.6h9.6c2.4 0 6.4 0 8.8.8v-1.6h-.8c-2.4 0-4.8-.8-4.8-4.8v-30.4h9.6c4 0 4 3.2 4.8 5.6l1.6-.8v-4.8c0-1.6 0-3.2.8-4h-.8c0 1.6-1.6 1.6-3.2 1.6H75.2c-1.6 0-3.2 0-3.2-1.6h-2.4v4.8c0 1.6-.8 3.2-.8 4.8h1.6c.8-4 1.6-5.6 5.6-4.8-4 0-4 .8-4.8 4.8H68c0-1.6.8-3.2.8-4.8v-4.8h1.6c0 1.6 1.6 1.6 3.2 1.6h29.6c1.6 0 2.4 0 3.2-1.6h1.6c0 1.6-.8 3.2-.8 4.8v4.8h-2.4c0-2.4 0-5.6-4-5.6H92V412c0 4 1.6 4.8 4.8 4.8h1.6l-.8 1.6zm12-2.4h.8c2.4 0 4 0 4-3.2v-29.6c0-3.2-2.4-3.2-4-3.2h-.8v-1.6h28.8v8.8h-1.6c0-4-.8-6.4-7.2-6.4h-8V396h7.2c3.2 0 4-1.6 4.8-4.8h1.6V404h-1.6c0-3.2-.8-5.6-4.8-5.6h-7.2V412c0 4 3.2 4 7.2 4 7.2 0 9.6-.8 12-7.2h1.6c-.8 3.2-1.6 6.4-1.6 8.8h-30.4V416h-.8z"></path>
      <path d="M140 417.6c.8-3.2.8-5.6 1.6-8.8h-.8c-1.6 6.4-4.8 7.2-12 7.2-3.2 0-7.2 0-7.2-4v-13.6h7.2c4 0 4 2.4 4.8 5.6h1.6v-12.8h-1.6c0 3.2-1.6 4.8-4.8 4.8h-7.2v-15.2h8c5.6 0 7.2 3.2 7.2 6.4h1.6v-8h-28v1.6h.8c2.4 0 4.8 0 4.8 3.2v29.6c0 3.2-2.4 3.2-4.8 3.2h-.8v1.6h15.2c4-.8 10.4-.8 14.4-.8m0 .8h-30.4V416h.8c2.4 0 4 0 4-3.2v-29.6c0-2.4-1.6-3.2-4-3.2h-.8v-1.6h28.8v8.8l-1.6.8c0-4-.8-6.4-6.4-6.4h-8V396h6.4c3.2 0 4-1.6 4-4.8h1.6V404h-1.6c0-3.2-.8-5.6-4-5.6h-6.4v12.8c0 3.2 3.2 3.2 6.4 3.2 7.2 0 9.6 0 11.2-6.4l1.6.8c0 3.2-.8 6.4-1.6 9.6zm16.8-20.8h2.4c5.6 0 8.8-2.4 8.8-8.8 0-4.8-3.2-8-8-8h-3.2v16.8zm-7.2-13.6c0-4-2.4-4-4-4h-.8v-1.6h17.6c7.2 0 13.6 1.6 13.6 10.4 0 4.8-3.2 8-8 10.4l9.6 14.4c1.6 2.4 2.4 3.2 5.6 3.2v1.6H172c-4-5.6-8-12-12-18.4h-4v12c0 4 2.4 4.8 4.8 4.8h.8v1.6H144V416h.8c2.4 0 4-.8 4-3.2V384h.8z"></path>
      <path d="M160 397.6c5.6 0 8.8-1.6 8.8-8.8 0-4.8-3.2-8-8-8h-3.2v16.8h2.4zm-3.2 0V380h3.2c4.8 0 8.8 3.2 8.8 8.8 0 7.2-3.2 8.8-8.8 8.8h-3.2zm0 1.6h4c4 6.4 7.2 12.8 12 18.4H184V416c-2.4 0-4-.8-5.6-3.2l-9.6-15.2c4.8-1.6 8-4.8 8-9.6 0-8-6.4-9.6-13.6-9.6h-17.6v1.6h.8c1.6 0 4 0 4 4.8v28.8c0 2.4-2.4 3.2-4 3.2h-1.6v1.6h17.6v-1.6h-.8c-2.4 0-4.8 0-4.8-4.8v-12.8zm27.2 19.2h-11.2c-4-5.6-8-12-12-18.4h-3.2v12c0 4 1.6 4 4.8 4h1.6v1.6h-17.6V416h.8c2.4 0 4-.8 4-3.2V384c0-4-2.4-4-4-4h-2.4v-1.6h17.6c7.2 0 13.6 2.4 13.6 10.4 0 4.8-3.2 8-8 10.4l9.6 14.4c1.6 2.4 2.4 3.2 5.6 3.2l.8 1.6zm38.4-12v-21.6c0-4.8-3.2-5.6-4.8-5.6H216v-1.6h15.2v1.6h-.8c-2.4 0-4.8.8-4.8 7.2v31.2h-2.4l-29.6-32.8V408c0 4.8.8 6.4 5.6 6.4h1.6v1.6h-15.2.8c4 0 4.8-2.4 4.8-7.2v-24c0-3.2-2.4-4.8-5.6-4.8h-.8v-1.6H196l26.4 28z"></path>
      <path d="M222.4 406.4zm0 0zm.8 12h1.6v-31.2c0-7.2 3.2-7.2 5.6-7.2h.8v-1.6h-14.4v1.6h.8c1.6 0 5.6.8 5.6 5.6v21.6l-25.6-28.8h-11.2v1.6h.8c2.4 0 5.6 2.4 5.6 5.6v24c0 4.8-1.6 7.2-5.6 7.2h-.8v1.6h14.4v-1.6h-.8c-4.8 0-5.6-1.6-5.6-7.2v-24l28.8 32.8zm2.4.8h-2.4l-28.8-32v23.2c0 4.8.8 6.4 4.8 6.4h1.6v1.6h-15.2V416h.8c4 0 4.8-2.4 4.8-7.2v-24c0-3.2-2.4-4.8-4.8-4.8h-1.6v-1.6h12l24.8 28v-20.8c0-4.8-3.2-4.8-4.8-4.8h-1.6v-1.6h15.2v1.6h-.8c-2.4 0-4.8 0-4.8 7.2v25.6c.8 1.6.8 3.2.8 5.6zm23.2-34.4l-5.6 16h10.4l-4.8-16zm-8 24.8c-.8 1.6-1.6 3.2-1.6 4.8 0 1.6 2.4 1.6 4 1.6h.8v1.6h-13.6V416c2.4 0 4-1.6 4.8-4l8.8-26.4 2.4-7.2c1.6-.8 4-1.6 5.6-2.4h.8c0 .8 0 .8.8 1.6l11.2 30.4c.8 1.6 1.6 4 2.4 5.6s1.6 2.4 4 2.4v1.6h-16.8V416h.8c1.6 0 3.2 0 3.2-1.6 0-.8-.8-2.4-.8-4l-2.4-6.4h-12.8l-1.6 5.6z"></path>
      <path d="M248.8 384.8zm-4.8 16h10.4l-5.6-16-4.8 16zm-.8 0l5.6-16.8 5.6 16.8h-11.2zm11.2 16.8h16V416c-1.6 0-3.2-.8-4-2.4-.8-.8-1.6-3.2-1.6-5.6l-10.4-29.6c0-.8 0-.8-.8-1.6-.8.8-3.2 1.6-4.8 2.4 0 2.4-1.6 4.8-2.4 7.2l-8.8 26.4c-.8 2.4-3.2 4-5.6 4v1.6h12v-1.6c-1.6 0-4.8 0-4.8-2.4 0-.8.8-2.4 1.6-4.8l1.6-6.4H256l2.4 6.4c.8 1.6.8 3.2.8 4 0 1.6-2.4 1.6-4 1.6v2.4h-.8zm16.8.8h-16.8V416h.8c1.6 0 3.2 0 3.2-1.6 0-.8-.8-2.4-.8-4l-2.4-6.4h-12.8l-1.6 5.6c-.8 1.6-1.6 3.2-1.6 4 0 1.6 2.4 1.6 4 1.6h.8v1.6h-13.6v-.8c2.4 0 4-1.6 4.8-3.2l8.8-26.4 2.4-7.2c1.6-.8 4-1.6 4.8-2.4h1.6c0 .8 0 .8.8 1.6l11.2 29.6c.8 2.4 1.6 4 2.4 5.6s1.6 2.4 3.2 2.4h.8v2.4zm2.4-37.6c-4 0-4.8.8-5.6 4.8h-1.6c0-1.6.8-3.2.8-4.8V376h1.6c.8 1.6 1.6 1.6 3.2 1.6h29.6c1.6 0 3.2 0 3.2-1.6h1.6c0 1.6-.8 3.2-.8 4.8v4.8l-1.6.8c0-2.4-.8-5.6-4-5.6h-9.6v30.4c0 4 1.6 4.8 4.8 4.8h.8v1.6h-19.2V416h.8c3.2 0 4.8 0 4.8-4.8v-30.4h-8.8z"></path>
      <path d="M296 418.4h-19.2V416h.8c3.2 0 4 0 4.8-4.8v-30.4h-8.8 9.6v30.4c0 4.8-1.6 4.8-4.8 4.8h-.8v1.6h9.6c2.4 0 6.4 0 8.8.8v-1.6h-.8c-2.4 0-4.8-.8-4.8-4.8v-30.4h9.6c4 0 4 3.2 4.8 5.6l1.6-.8v-4.8c0-1.6 0-3.2.8-4h-.8c0 1.6-1.6 1.6-3.2 1.6h-29.6c-1.6 0-2.4 0-3.2-1.6h-.8v4.8c0 1.6-.8 3.2-.8 4.8h1.6c.8-4 1.6-5.6 5.6-4.8-4 0-4 .8-4.8 4.8h-2.4c0-1.6.8-3.2.8-4.8v-4.8h1.6c0 1.6 1.6 1.6 3.2 1.6H304c1.6 0 2.4 0 3.2-1.6h1.6c0 1.6-.8 3.2-.8 4.8v4.8l-2.4.8c0-2.4 0-5.6-4-5.6h-8.8v30.4c0 4 1.6 4.8 4.8 4.8h1.6l-3.2.8z"></path>
      <path d="M308 416c3.2 0 4.8 0 4.8-3.2v-29.6c0-3.2-2.4-3.2-4-3.2h-.8v-1.6h17.6v1.6h-.8c-2.4 0-4 0-4 3.2v29.6c0 3.2 2.4 3.2 4 3.2h.8v1.6h-16.8V416h-.8z"></path>
      <path d="M325.6 417.6V416h-.8c-2.4 0-4.8 0-4.8-3.2v-29.6c0-3.2 2.4-3.2 4.8-3.2h.8v-1.6h-16.8v1.6h.8c2.4 0 4.8 0 4.8 3.2v29.6c0 3.2-2.4 3.2-4.8 3.2h-.8v1.6h16.8m0 .8h-16.8V416h.8c2.4 0 4 0 4-3.2v-29.6c0-2.4-1.6-3.2-4-3.2h-.8v-1.6h17.6v1.6h-.8c-2.4 0-4 0-4 3.2v29.6c0 2.4 1.6 3.2 4 3.2h.8l-.8 2.4zm24-2.4c11.2 0 12.8-9.6 12.8-18.4 0-8-4.8-18.4-13.6-18.4-10.4 0-12.8 8.8-12.8 16.8-.8 10.4 4 20 13.6 20m-.8-38.4c12 0 21.6 7.2 21.6 20s-9.6 21.6-21.6 21.6-21.6-8-21.6-20.8c0-12 9.6-20.8 21.6-20.8"></path>
      <path d="M335.2 396c0-8 3.2-16.8 13.6-16.8 9.6 0 14.4 10.4 14.4 18.4s-1.6 18.4-13.6 18.4c11.2 0 12.8-9.6 12.8-17.6s-4.8-18.4-13.6-18.4c-10.4 0-12.8 8.8-13.6 16 .8 10.4 4.8 20 14.4 20-9.6.8-14.4-9.6-14.4-20m-8 2.4c0-12 9.6-21.6 21.6-21.6-12 .8-20.8 9.6-21.6 21.6.8 12 9.6 20 21.6 20s21.6-8.8 21.6-21.6c0-12-9.6-19.2-21.6-19.2 12 0 22.4 8 22.4 20 0 13.6-9.6 22.4-21.6 22.4-12.8-.8-22.4-8.8-22.4-21.6m81.6 8v-21.6c0-4.8-3.2-5.6-4.8-5.6h-1.6v-1.6h15.2v1.6h-.8c-2.4 0-4.8.8-4.8 7.2v31.2h-2.4L380 384.8V408c0 4.8.8 6.4 5.6 6.4h.8v1.6h-15.2.8c4 0 4.8-2.4 4.8-7.2v-24c0-3.2-2.4-4.8-4.8-4.8h-.8v-1.6h11.2l26.4 28z"></path>
      <path d="M408.8 406.4zm0 0zm.8 12h1.6v-31.2c0-7.2 3.2-7.2 5.6-7.2h.8v-1.6h-14.4v1.6h.8c1.6 0 5.6.8 5.6 5.6v21.6L384 378.4h-11.2v1.6h.8c2.4 0 5.6 2.4 5.6 5.6v24c0 4.8-1.6 7.2-5.6 7.2h-.8v1.6h14.4v-1.6h-.8c-4.8 0-5.6-1.6-5.6-7.2v-24l28.8 32.8zm2.4.8h-2.4l-28.8-32v23.2c0 4.8.8 6.4 4.8 6.4h1.6v1.6H372V416h.8c4 0 4.8-2.4 4.8-7.2v-24c0-3.2-2.4-4.8-4.8-4.8h-.8v-1.6h12l24.8 28v-20.8c0-4.8-3.2-4.8-4.8-4.8h-1.6v-1.6h15.2v1.6h-.8c-2.4 0-4.8 0-4.8 7.2v31.2zm23.2-34.4l-5.6 16h11.2l-5.6-16zm-8 24.8c-.8 1.6-1.6 3.2-1.6 4.8 0 1.6 2.4 1.6 4 1.6h.8v1.6h-13.6V416c2.4 0 4-1.6 4.8-4l8.8-26.4 2.4-7.2c1.6-.8 4-1.6 5.6-2.4h.8c0 .8 0 .8.8 1.6l10.4 29.6c.8 1.6 1.6 4 2.4 5.6.8 3.2 2.4 3.2 4 3.2v1.6H440V416h.8c1.6 0 3.2 0 3.2-1.6 0-.8-.8-2.4-.8-4l-2.4-6.4H428l-.8 5.6z"></path>
      <path d="M435.2 384.8zm-4.8 16h9.6l-4.8-15.2-4.8 15.2zm-.8 0l5.6-16.8 5.6 16.8h-11.2zm11.2 16.8h16V416c-1.6 0-3.2-.8-4-2.4s-1.6-4-2.4-5.6L440 378.4c0-.8 0-.8-.8-1.6-.8.8-3.2 1.6-4.8 2.4 0 2.4-1.6 4.8-2.4 7.2l-8.8 26.4c-.8 2.4-3.2 4-4.8 4v1.6h12v-1.6c-1.6 0-4.8 0-4.8-2.4 0-.8.8-2.4 1.6-4.8l1.6-6.4h13.6l2.4 6.4c.8 1.6.8 3.2.8 4 0 1.6-2.4 1.6-4 1.6v2.4h-.8zm16.8.8h-16.8V416h.8c1.6 0 3.2 0 3.2-1.6 0-.8-.8-2.4-.8-4l-2.4-6.4h-12.8l-1.6 5.6c-.8 1.6-1.6 3.2-1.6 4 0 1.6 2.4 1.6 4 1.6h.8v1.6h-13.6v-.8c2.4 0 4-1.6 4.8-3.2l8.8-26.4 2.4-7.2c1.6-.8 4-1.6 5.6-2.4h1.6c0 .8 0 .8.8 1.6l10.4 29.6c.8 2.4 1.6 4 2.4 5.6s1.6 2.4 3.2 2.4h.8v2.4zm14.4-5.6c0 2.4 1.6 3.2 3.2 3.2h7.2c2.4 0 4.8-1.6 5.6-3.2.8-1.6 1.6-3.2 1.6-4h1.6l-2.4 9.6h-30.4V416h.8c2.4 0 4 0 4-4v-29.6c0-3.2-2.4-3.2-4-3.2h-.8v-1.6H476v1.6h-1.6c-2.4 0-4 0-4 3.2v30.4h1.6z"></path>
      <path d="M488.8 417.6c.8-3.2 1.6-6.4 2.4-8.8h-.8c0 1.6-.8 2.4-1.6 4s-3.2 3.2-5.6 3.2H476c-1.6 0-4-.8-4-3.2v-29.6c0-3.2 1.6-3.2 4-3.2h.8v-1.6h-17.6v1.6h.8c2.4 0 4.8 0 4.8 3.2v29.6c0 4-2.4 4-4.8 4h-.8v1.6h15.2c4.8-.8 9.6-.8 14.4-.8m.8.8h-30.4V416h.8c2.4 0 4 0 4-3.2v-29.6c0-2.4-1.6-3.2-4-3.2h-.8v-1.6h17.6v1.6h-1.6c-2.4 0-4 0-4 3.2v29.6c0 2.4 1.6 2.4 3.2 3.2h7.2c2.4 0 4-1.6 5.6-3.2.8-1.6 1.6-2.4 1.6-4h1.6c.8 3.2 0 6.4-.8 9.6zm0-36c1.6 0 1.6-.8 1.6-1.6s-.8-1.6-.8-1.6h-.8v3.2zm-1.6 3.2c.8 0 .8 0 .8-.8V380c0-.8 0-.8-.8-.8h3.2c.8 0 2.4.8 2.4 1.6s-.8 1.6-1.6 1.6l.8 1.6c.8.8.8 1.6 1.6 1.6h-.8c-.8 0-.8-.8-2.4-2.4h-.8v1.6c0 .8 0 0 .8.8H488zm2.4 1.6c2.4 0 4.8-2.4 4.8-4.8s-2.4-4.8-4.8-4.8-4.8 2.4-4.8 4.8c.8 2.4 2.4 4.8 4.8 4.8m0-10.4c3.2 0 6.4 2.4 6.4 6.4s-2.4 5.6-6.4 5.6-6.4-2.4-6.4-5.6 3.2-6.4 6.4-6.4"></path>
    </g>
    <path d="M355.2 160.8c0-25.6-10.4-48.8-28-67.2-16.8-10.4-36.8-16.8-57.6-16.8h-46.4c-55.2 0-100 40.8-100 100 0 24.8 9.6 47.2 24.8 64.8 16 11.2 35.2 19.2 56 22.4-40.8-8.8-71.2-44.8-71.2-88.8 0-50.4 40.8-91.2 90.4-91.2 50.4 0 91.2 40.8 91.2 91.2 0 49.6-39.2 89.6-88.8 90.4h4c68.8.8 125.6-46.4 125.6-104.8z" fill="#004a97"></path>
    <path d="M222.4 76.8c-55.2 0-100 40.8-100 100 0 24 8.8 46.4 24 63.2l2.4 2.4c16 11.2 34.4 18.4 55.2 22.4-40.8-8.8-71.2-44.8-71.2-88.8 0-50.4 40.8-91.2 90.4-91.2 50.4 0 91.2 40.8 91.2 91.2 0 49.6-39.2 89.6-88.8 90.4h4c4 0 8 0 12-.8 52.8-12.8 86.4-66.4 76.8-123.2-4.8-26.4-17.6-48.8-36-64.8-4-.8-8-.8-12-.8h-48z" fill="#006ac9"></path>
  </symbol>
  <symbol xmlns="http://www.w3.org/2000/svg" viewBox="0 0 496 496" id="discover">
    <circle cx="263.2" cy="211.6" r="41.6" fill="#ef9122"></circle>
    <path d="M221.6 211.6c0-23.2 18.4-41.6 41.6-41.6s41.6 18.4 41.6 41.6-18.4 41.6-41.6 41.6" fill="#f26e21"></path>
    <path d="M234.4 182c16-16 42.4-16 58.4 0s16 42.4 0 58.4" fill="#f44500"></path>
    <path d="M22.4 172.4H0v78.4h22.4c12 0 20.8-3.2 28-8.8 8.8-7.2 14.4-18.4 14.4-30.4 0-23.2-16.8-39.2-42.4-39.2zm18.4 59.2c-4.8 4-11.2 6.4-20.8 6.4h-4.8v-52h4c9.6 0 16 1.6 20.8 6.4 5.6 4.8 8.8 12 8.8 19.2.8 7.2-2.4 15.2-8 20zM72 172.4h15.2v78.4H72zm53.6 30.4c-9.6-3.2-12-5.6-12-9.6 0-4.8 4.8-8.8 11.2-8.8 4.8 0 8.8 1.6 12.8 6.4l8-10.4c-6.4-5.6-14.4-8.8-23.2-8.8-13.6 0-24.8 9.6-24.8 22.4 0 11.2 4.8 16 19.2 21.6 6.4 2.4 8.8 3.2 10.4 4.8 3.2 1.6 4.8 4.8 4.8 8 0 6.4-4.8 11.2-12 11.2s-13.6-4-16.8-10.4l-9.6 9.6c7.2 10.4 16 15.2 27.2 15.2 16 0 27.2-10.4 27.2-25.6 0-13.6-4.8-19.2-22.4-25.6z" fill="#595a5b"></path>
    <path d="M152.8 211.6c0 23.2 18.4 40.8 41.6 40.8 6.4 0 12-1.6 19.2-4.8v-18.4c-6.4 6.4-12 8.8-18.4 8.8-15.2 0-26.4-11.2-26.4-27.2 0-15.2 11.2-27.2 25.6-27.2 7.2 0 12.8 2.4 19.2 8.8V174c-6.4-3.2-12-4.8-19.2-4.8-22.4 1.6-41.6 20-41.6 42.4z" fill="#3b3d3f"></path>
    <path d="M339.2 225.2l-20.8-52.8h-16.8l32.8 80.8h8.8l34.4-80.8h-16.8zm44.8 25.6h44V238h-28v-21.6h27.2v-13.6H400V186h28v-13.6h-44z"></path>
    <path d="M471.2 218c12-2.4 18.4-10.4 18.4-22.4 0-14.4-10.4-23.2-28-23.2h-23.2v78.4h15.2v-31.2h2.4l21.6 31.2H496L471.2 218zm-12.8-9.6h-4.8v-24h4.8c9.6 0 15.2 4 15.2 12s-5.6 12-15.2 12zm-436-36H0v78.4h22.4c12 0 20.8-3.2 28-8.8 8.8-7.2 14.4-18.4 14.4-30.4 0-23.2-16.8-39.2-42.4-39.2zm18.4 59.2c-4.8 4-11.2 6.4-20.8 6.4h-4.8v-52h4c9.6 0 16 1.6 20.8 6.4 5.6 4.8 8.8 12 8.8 19.2.8 7.2-2.4 15.2-8 20zM72 172.4h15.2v78.4H72zm53.6 30.4c-9.6-3.2-12-5.6-12-9.6 0-4.8 4.8-8.8 11.2-8.8 4.8 0 8.8 1.6 12.8 6.4l8-10.4c-6.4-5.6-14.4-8.8-23.2-8.8-13.6 0-24.8 9.6-24.8 22.4 0 11.2 4.8 16 19.2 21.6 6.4 2.4 8.8 3.2 10.4 4.8 3.2 1.6 4.8 4.8 4.8 8 0 6.4-4.8 11.2-12 11.2s-13.6-4-16.8-10.4l-9.6 9.6c7.2 10.4 16 15.2 27.2 15.2 16 0 27.2-10.4 27.2-25.6 0-13.6-4.8-19.2-22.4-25.6zm69.6 49.6c6.4 0 12-1.6 19.2-4.8v-18.4c-6.4 6.4-12 8.8-18.4 8.8-15.2 0-26.4-11.2-26.4-27.2 0-8 3.2-14.4 8-20l-10.4-10.4c-8 7.2-13.6 18.4-13.6 30.4-.8 24 17.6 41.6 41.6 41.6z" fill="#595a5b"></path>
    <path d="M471.2 218c12-2.4 18.4-10.4 18.4-22.4 0-14.4-10.4-23.2-28-23.2h-23.2v78.4h15.2v-31.2h2.4l21.6 31.2H496L471.2 218zm-12.8-9.6h-4.8v-24h4.8c9.6 0 15.2 4 15.2 12s-5.6 12-15.2 12z"></path>
    <path d="M112.8 323.6v-44l30.4 31.2V282h6.4v44l-30.4-31.2v28.8h-6.4zm68.8-35.2h-16.8v9.6h16v6.4h-16V318h16.8v5.6h-23.2V282h23.2v6.4zm20 0v35.2h-6.4v-35.2h-9.6v-5.6h25.6v5.6h-9.6zm19.2-5.6l10.4 28 11.2-29.6 10.4 29.6 11.2-28h8l-18.4 44-10.4-29.6-11.2 29.6-17.6-44h6.4zm52 20c0-5.6 2.4-11.2 6.4-15.2s9.6-6.4 15.2-6.4 11.2 2.4 15.2 6.4 6.4 9.6 6.4 15.2-2.4 11.2-6.4 15.2-9.6 6.4-15.2 6.4-10.4-1.6-14.4-5.6c-4.8-4-7.2-8.8-7.2-16zm6.4 0c0 4.8 1.6 8 4.8 11.2 3.2 3.2 6.4 4.8 10.4 4.8s8-1.6 11.2-4.8c3.2-3.2 4.8-6.4 4.8-11.2 0-4.8-1.6-8-4.8-11.2-3.2-3.2-6.4-4.8-11.2-4.8-4 0-8 1.6-11.2 4.8-2.4 3.2-4 7.2-4 11.2zm59.2 3.2l12.8 17.6h-8l-12-16.8h-.8v16.8H324V282h7.2c5.6 0 9.6.8 12 3.2 2.4 2.4 4 5.6 4 8.8 0 3.2-.8 5.6-2.4 7.2-1.6 3.2-4 4.8-6.4 4.8zm-8-4.8h1.6c5.6 0 8.8-2.4 8.8-6.4s-3.2-6.4-8.8-6.4h-2.4v12.8h.8zm32.8-2.4l16-16.8h8l-18.4 18.4 18.4 22.4h-8L364 304.4l-1.6 1.6v16.8H356v-41.6h6.4v17.6h.8z" fill="#f26e21"></path>
    <path d="M414.4 238H400v-14.4l-16-16v43.2h43.2zm-57.6-57.6l-17.6 44.8-20.8-52.8h-16.8l32.8 80.8h8.8l25.6-60.8z" fill="#3b3d3f"></path>
  </symbol>
  <symbol xmlns="http://www.w3.org/2000/svg" viewBox="0 0 504 504" id="visa">
    <path fill="#3c58bf" d="M184.8 324.4l25.6-144h40l-24.8 144z"></path>
    <path fill="#293688" d="M184.8 324.4l32.8-144h32.8l-24.8 144z"></path>
    <path d="M370.4 182c-8-3.2-20.8-6.4-36.8-6.4-40 0-68.8 20-68.8 48.8 0 21.6 20 32.8 36 40s20.8 12 20.8 18.4c0 9.6-12.8 14.4-24 14.4-16 0-24.8-2.4-38.4-8l-5.6-2.4-5.6 32.8c9.6 4 27.2 8 45.6 8 42.4 0 70.4-20 70.4-50.4 0-16.8-10.4-29.6-34.4-40-14.4-7.2-23.2-11.2-23.2-18.4 0-6.4 7.2-12.8 23.2-12.8 13.6 0 23.2 2.4 30.4 5.6l4 1.6 6.4-31.2z" fill="#3c58bf"></path>
    <path d="M370.4 182c-8-3.2-20.8-6.4-36.8-6.4-40 0-61.6 20-61.6 48.8 0 21.6 12.8 32.8 28.8 40s20.8 12 20.8 18.4c0 9.6-12.8 14.4-24 14.4-16 0-24.8-2.4-38.4-8l-5.6-2.4-5.6 32.8c9.6 4 27.2 8 45.6 8 42.4 0 70.4-20 70.4-50.4 0-16.8-10.4-29.6-34.4-40-14.4-7.2-23.2-11.2-23.2-18.4 0-6.4 7.2-12.8 23.2-12.8 13.6 0 23.2 2.4 30.4 5.6l4 1.6 6.4-31.2z" fill="#293688"></path>
    <path d="M439.2 180.4c-9.6 0-16.8.8-20.8 10.4l-60 133.6h43.2l8-24h51.2l4.8 24H504l-33.6-144h-31.2zm-18.4 96c2.4-7.2 16-42.4 16-42.4s3.2-8.8 5.6-14.4l2.4 13.6s8 36 9.6 44h-33.6v-.8z" fill="#3c58bf"></path>
    <path d="M448.8 180.4c-9.6 0-16.8.8-20.8 10.4l-69.6 133.6h43.2l8-24h51.2l4.8 24H504l-33.6-144h-21.6zm-28 96c3.2-8 16-42.4 16-42.4s3.2-8.8 5.6-14.4l2.4 13.6s8 36 9.6 44h-33.6v-.8z" fill="#293688"></path>
    <path d="M111.2 281.2l-4-20.8c-7.2-24-30.4-50.4-56-63.2l36 128h43.2l64.8-144H152l-40.8 100z" fill="#3c58bf"></path>
    <path d="M111.2 281.2l-4-20.8c-7.2-24-30.4-50.4-56-63.2l36 128h43.2l64.8-144H160l-48.8 100z" fill="#293688"></path>
    <path d="M0 180.4l7.2 1.6c51.2 12 86.4 42.4 100 78.4l-14.4-68c-2.4-9.6-9.6-12-18.4-12H0z" fill="#ffbc00"></path>
    <path d="M0 180.4c51.2 12 93.6 43.2 107.2 79.2l-13.6-56.8c-2.4-9.6-10.4-15.2-19.2-15.2L0 180.4z" fill="#f7981d"></path>
    <path d="M0 180.4c51.2 12 93.6 43.2 107.2 79.2l-9.6-31.2c-2.4-9.6-5.6-19.2-16.8-23.2L0 180.4z" fill="#ed7c00"></path>
    <path d="M151.2 276.4L124 249.2l-12.8 30.4-3.2-20c-7.2-24-30.4-50.4-56-63.2l36 128h43.2l20-48zm74.4 48l-34.4-35.2-6.4 35.2zm92-49.6c3.2 3.2 4.8 5.6 4 8.8 0 9.6-12.8 14.4-24 14.4-16 0-24.8-2.4-38.4-8l-5.6-2.4-5.6 32.8c9.6 4 27.2 8 45.6 8 25.6 0 46.4-7.2 58.4-20l-34.4-33.6zm46.4 49.6h37.6l8-24h51.2l4.8 24H504L490.4 266l-48-46.4 2.4 12.8s8 36 9.6 44h-33.6c3.2-8 16-42.4 16-42.4s3.2-8.8 5.6-14.4" fill="#051244"></path>
  </symbol>
  <symbol xmlns="http://www.w3.org/2000/svg" viewBox="0 0 504 504" id="mastercard">
    <path d="M504 252c0 83.2-67.2 151.2-151.2 151.2-83.2 0-151.2-68-151.2-151.2 0-83.2 67.2-151.2 150.4-151.2 84.8 0 152 68 152 151.2z" fill="#ffb600"></path>
    <path d="M352.8 100.8c83.2 0 151.2 68 151.2 151.2 0 83.2-67.2 151.2-151.2 151.2-83.2 0-151.2-68-151.2-151.2" fill="#f7981d"></path>
    <path d="M352.8 100.8c83.2 0 151.2 68 151.2 151.2 0 83.2-67.2 151.2-151.2 151.2" fill="#ff8500"></path>
    <path d="M149.6 100.8C67.2 101.6 0 168.8 0 252s67.2 151.2 151.2 151.2c39.2 0 74.4-15.2 101.6-39.2 5.6-4.8 10.4-10.4 15.2-16h-31.2c-4-4.8-8-10.4-11.2-15.2h53.6c3.2-4.8 6.4-10.4 8.8-16h-71.2c-2.4-4.8-4.8-10.4-6.4-16h83.2c4.8-15.2 8-31.2 8-48 0-11.2-1.6-21.6-3.2-32h-92.8c.8-5.6 2.4-10.4 4-16h83.2c-1.6-5.6-4-11.2-6.4-16H216c2.4-5.6 5.6-10.4 8.8-16h53.6c-3.2-5.6-7.2-11.2-12-16h-29.6c4.8-5.6 9.6-10.4 15.2-15.2-26.4-24.8-62.4-39.2-101.6-39.2 0-1.6 0-1.6-.8-1.6z" fill="#ff5050"></path>
    <path d="M0 252c0 83.2 67.2 151.2 151.2 151.2 39.2 0 74.4-15.2 101.6-39.2 5.6-4.8 10.4-10.4 15.2-16h-31.2c-4-4.8-8-10.4-11.2-15.2h53.6c3.2-4.8 6.4-10.4 8.8-16h-71.2c-2.4-4.8-4.8-10.4-6.4-16h83.2c4.8-15.2 8-31.2 8-48 0-11.2-1.6-21.6-3.2-32h-92.8c.8-5.6 2.4-10.4 4-16h83.2c-1.6-5.6-4-11.2-6.4-16H216c2.4-5.6 5.6-10.4 8.8-16h53.6c-3.2-5.6-7.2-11.2-12-16h-29.6c4.8-5.6 9.6-10.4 15.2-15.2-26.4-24.8-62.4-39.2-101.6-39.2h-.8" fill="#e52836"></path>
    <path d="M151.2 403.2c39.2 0 74.4-15.2 101.6-39.2 5.6-4.8 10.4-10.4 15.2-16h-31.2c-4-4.8-8-10.4-11.2-15.2h53.6c3.2-4.8 6.4-10.4 8.8-16h-71.2c-2.4-4.8-4.8-10.4-6.4-16h83.2c4.8-15.2 8-31.2 8-48 0-11.2-1.6-21.6-3.2-32h-92.8c.8-5.6 2.4-10.4 4-16h83.2c-1.6-5.6-4-11.2-6.4-16H216c2.4-5.6 5.6-10.4 8.8-16h53.6c-3.2-5.6-7.2-11.2-12-16h-29.6c4.8-5.6 9.6-10.4 15.2-15.2-26.4-24.8-62.4-39.2-101.6-39.2h-.8" fill="#cb2026"></path>
    <path d="M204.8 290.4l2.4-13.6c-.8 0-2.4.8-4 .8-5.6 0-6.4-3.2-5.6-4.8l4.8-28h8.8l2.4-15.2h-8l1.6-9.6h-16s-9.6 52.8-9.6 59.2c0 9.6 5.6 13.6 12.8 13.6 4.8 0 8.8-1.6 10.4-2.4zm5.6-25.6c0 22.4 15.2 28 28 28 12 0 16.8-2.4 16.8-2.4l3.2-15.2s-8.8 4-16.8 4c-17.6 0-14.4-12.8-14.4-12.8H260s2.4-10.4 2.4-14.4c0-10.4-5.6-23.2-23.2-23.2-16.8-1.6-28.8 16-28.8 36zm28-23.2c8.8 0 7.2 10.4 7.2 11.2H228c0-.8 1.6-11.2 10.4-11.2zM340 290.4l3.2-17.6s-8 4-13.6 4c-11.2 0-16-8.8-16-18.4 0-19.2 9.6-29.6 20.8-29.6 8 0 14.4 4.8 14.4 4.8l2.4-16.8s-9.6-4-18.4-4c-18.4 0-36.8 16-36.8 46.4 0 20 9.6 33.6 28.8 33.6 6.4 0 15.2-2.4 15.2-2.4zm-223.2-63.2c-11.2 0-19.2 3.2-19.2 3.2L95.2 244s7.2-3.2 17.6-3.2c5.6 0 10.4.8 10.4 5.6 0 3.2-.8 4-.8 4h-7.2c-13.6 0-28.8 5.6-28.8 24 0 14.4 9.6 17.6 15.2 17.6 11.2 0 16-7.2 16.8-7.2l-.8 6.4H132l6.4-44c0-19.2-16-20-21.6-20zm3.2 36c0 2.4-1.6 15.2-11.2 15.2-4.8 0-6.4-4-6.4-6.4 0-4 2.4-9.6 14.4-9.6 2.4.8 3.2.8 3.2.8zm33.6 28.8c4 0 24 .8 24-20.8 0-20-19.2-16-19.2-24 0-4 3.2-5.6 8.8-5.6 2.4 0 11.2.8 11.2.8l2.4-14.4s-5.6-1.6-15.2-1.6c-12 0-24 4.8-24 20.8 0 18.4 20 16.8 20 24 0 4.8-5.6 5.6-9.6 5.6-7.2 0-14.4-2.4-14.4-2.4l-2.4 14.4c.8 1.6 4.8 3.2 18.4 3.2zm319.2-77.6l-3.2 21.6s-6.4-8-15.2-8c-14.4 0-27.2 17.6-27.2 38.4 0 12.8 6.4 26.4 20 26.4 9.6 0 15.2-6.4 15.2-6.4l-.8 5.6h16l12-76.8-16.8-.8zm-7.2 42.4c0 8.8-4 20-12.8 20-5.6 0-8.8-4.8-8.8-12.8 0-12.8 5.6-20.8 12.8-20.8 5.6 0 8.8 4 8.8 13.6zm-436 34.4l9.6-57.6 1.6 57.6H52l20.8-57.6-8.8 57.6h16.8l12.8-76.8H67.2l-16 47.2-.8-47.2H27.2l-12.8 76.8h15.2zm248 0c4.8-26.4 5.6-48 16.8-44 1.6-10.4 4-14.4 5.6-18.4h-3.2c-7.2 0-12.8 9.6-12.8 9.6l1.6-8.8h-15.2L260 292h17.6v-.8zm99.2-64c-11.2 0-19.2 3.2-19.2 3.2l-2.4 13.6s7.2-3.2 17.6-3.2c5.6 0 10.4.8 10.4 5.6 0 3.2-.8 4-.8 4h-7.2c-13.6 0-28.8 5.6-28.8 24 0 14.4 9.6 17.6 15.2 17.6 11.2 0 16-7.2 16.8-7.2l-.8 6.4H392l6.4-44c.8-19.2-16-20-21.6-20zm4 36c0 2.4-1.6 15.2-11.2 15.2-4.8 0-6.4-4-6.4-6.4 0-4 2.4-9.6 14.4-9.6 2.4.8 2.4.8 3.2.8zm31.2 28c4.8-26.4 5.6-48 16.8-44 1.6-10.4 4-14.4 5.6-18.4h-3.2c-7.2 0-12.8 9.6-12.8 9.6l1.6-8.8h-15.2L394.4 292H412v-.8z" fill="#fff"></path>
    <path d="M180 279.2c0 9.6 5.6 13.6 12.8 13.6 5.6 0 10.4-1.6 12-2.4l2.4-13.6c-.8 0-2.4.8-4 .8-5.6 0-6.4-3.2-5.6-4.8l4.8-28h8.8l2.4-15.2h-8l1.6-9.6m11.2 44.8c0 22.4 7.2 28 20 28 12 0 16.8-2.4 16.8-2.4l3.2-15.2s-8.8 4-16.8 4c-17.6 0-14.4-12.8-14.4-12.8H260s2.4-10.4 2.4-14.4c0-10.4-5.6-23.2-23.2-23.2-16.8-1.6-20.8 16-20.8 36zm20-23.2c8.8 0 10.4 10.4 10.4 11.2H228c0-.8 1.6-11.2 10.4-11.2zM340 290.4l3.2-17.6s-8 4-13.6 4c-11.2 0-16-8.8-16-18.4 0-19.2 9.6-29.6 20.8-29.6 8 0 14.4 4.8 14.4 4.8l2.4-16.8s-9.6-4-18.4-4c-18.4 0-28.8 16-28.8 46.4 0 20 1.6 33.6 20.8 33.6 6.4 0 15.2-2.4 15.2-2.4zM95.2 244.8s7.2-3.2 17.6-3.2c5.6 0 10.4.8 10.4 5.6 0 3.2-.8 4-.8 4h-7.2c-13.6 0-28.8 5.6-28.8 24 0 14.4 9.6 17.6 15.2 17.6 11.2 0 16-7.2 16.8-7.2l-.8 6.4H132l6.4-44c0-18.4-16-19.2-22.4-19.2m12 34.4c0 2.4-9.6 15.2-19.2 15.2-4.8 0-6.4-4-6.4-6.4 0-4 2.4-9.6 14.4-9.6 2.4.8 11.2.8 11.2.8zm8 27.2s4.8 1.6 18.4 1.6c4 0 24 .8 24-20.8 0-20-19.2-16-19.2-24 0-4 3.2-5.6 8.8-5.6 2.4 0 11.2.8 11.2.8l2.4-14.4s-5.6-1.6-15.2-1.6c-12 0-16 4.8-16 20.8 0 18.4 12 16.8 12 24 0 4.8-5.6 5.6-9.6 5.6M469.6 236s-6.4-8-15.2-8c-14.4 0-19.2 17.6-19.2 38.4 0 12.8-1.6 26.4 12 26.4 9.6 0 15.2-6.4 15.2-6.4l-.8 5.6h16l12-76.8m-20.8 41.6c0 8.8-7.2 20-16 20-5.6 0-8.8-4.8-8.8-12.8 0-12.8 5.6-20.8 12.8-20.8 5.6 0 12 4 12 13.6zM29.6 291.2l9.6-57.6 1.6 57.6H52l20.8-57.6-8.8 57.6h16.8l12.8-76.8h-20l-22.4 47.2-.8-47.2h-8.8l-27.2 76.8h15.2zm231.2 0h16.8c4.8-26.4 5.6-48 16.8-44 1.6-10.4 4-14.4 5.6-18.4h-3.2c-7.2 0-12.8 9.6-12.8 9.6l1.6-8.8m69.6 15.2s7.2-3.2 17.6-3.2c5.6 0 10.4.8 10.4 5.6 0 3.2-.8 4-.8 4h-7.2c-13.6 0-28.8 5.6-28.8 24 0 14.4 9.6 17.6 15.2 17.6 11.2 0 16-7.2 16.8-7.2l-.8 6.4H392l6.4-44c0-18.4-16-19.2-22.4-19.2m12 34.4c0 2.4-9.6 15.2-19.2 15.2-4.8 0-6.4-4-6.4-6.4 0-4 2.4-9.6 14.4-9.6 3.2.8 11.2.8 11.2.8zm7.2 28H412c4.8-26.4 5.6-48 16.8-44 1.6-10.4 4-14.4 5.6-18.4h-3.2c-7.2 0-12.8 9.6-12.8 9.6l1.6-8.8" fill="#dce5e5"></path>
  </symbol>

 <symbol xmlns="http://www.w3.org/2000/svg" viewBox="0 0 504 504" id="paypal">
    <path d="M389.6 221.2h-27.2c-1.6 0-3.2 1.6-4 3.2l-11.2 70.4c0 1.6.8 2.4 2.4 2.4H364c1.6 0 2.4-.8 2.4-2.4l3.2-20c0-1.6 1.6-3.2 4-3.2h8.8c18.4 0 28.8-8.8 31.2-26.4 1.6-7.2 0-13.6-3.2-17.6-4.8-4-12-6.4-20.8-6.4m3.2 26.4c-1.6 9.6-8.8 9.6-16 9.6H372l3.2-18.4c0-.8.8-1.6 2.4-1.6h1.6c4.8 0 9.6 0 12 3.2 1.6.8 1.6 3.2 1.6 7.2" fill="#139ad6"></path>
    <path d="M193.6 221.2h-27.2c-1.6 0-3.2 1.6-4 3.2l-11.2 70.4c0 1.6.8 2.4 2.4 2.4h12.8c1.6 0 3.2-1.6 4-3.2l3.2-19.2c0-1.6 1.6-3.2 4-3.2h8.8c18.4 0 28.8-8.8 31.2-26.4 1.6-7.2 0-13.6-3.2-17.6-4.8-4-11.2-6.4-20.8-6.4m3.2 26.4c-1.6 9.6-8.8 9.6-16 9.6h-4l3.2-18.4c0-.8.8-1.6 2.4-1.6h1.6c4.8 0 9.6 0 12 3.2.8.8 1.6 3.2.8 7.2m79.2-.8h-12.8c-.8 0-2.4.8-2.4 1.6l-.8 4-.8-1.6c-3.2-4-8.8-5.6-15.2-5.6-14.4 0-27.2 11.2-29.6 26.4-1.6 8 .8 15.2 4.8 20s9.6 6.4 16.8 6.4c12 0 18.4-7.2 18.4-7.2l-.8 4c0 1.6.8 2.4 2.4 2.4h12c1.6 0 3.2-1.6 4-3.2l7.2-44.8c-.8-.8-2.4-2.4-3.2-2.4m-18.4 25.6c-1.6 7.2-7.2 12.8-15.2 12.8-4 0-7.2-1.6-8.8-3.2-1.6-2.4-2.4-5.6-2.4-9.6.8-7.2 7.2-12.8 14.4-12.8 4 0 6.4 1.6 8.8 3.2 2.4 2.4 3.2 6.4 3.2 9.6" fill="#263b80"></path>
    <path d="M471.2 246.8h-12.8c-.8 0-2.4.8-2.4 1.6l-.8 4-.8-1.6c-3.2-4-8.8-5.6-15.2-5.6-14.4 0-27.2 11.2-29.6 26.4-1.6 8 .8 15.2 4.8 20s9.6 6.4 16.8 6.4c12 0 18.4-7.2 18.4-7.2l-.8 4c0 1.6.8 2.4 2.4 2.4h12c1.6 0 3.2-1.6 4-3.2l7.2-44.8c-.8-.8-1.6-2.4-3.2-2.4m-18.4 25.6c-1.6 7.2-7.2 12.8-15.2 12.8-4 0-7.2-1.6-8.8-3.2-1.6-2.4-2.4-5.6-2.4-9.6.8-7.2 7.2-12.8 14.4-12.8 4 0 6.4 1.6 8.8 3.2 3.2 2.4 4 6.4 3.2 9.6" fill="#139ad6"></path>
    <path d="M345.6 246.8H332c-1.6 0-2.4.8-3.2 1.6l-17.6 27.2-8-25.6c-.8-1.6-1.6-2.4-4-2.4h-12.8c-1.6 0-2.4 1.6-2.4 3.2l14.4 42.4-13.6 19.2c-.8 1.6 0 4 1.6 4h12.8c1.6 0 2.4-.8 3.2-1.6l44-63.2c2.4-2.4.8-4.8-.8-4.8" fill="#263b80"></path>
    <path d="M486.4 223.6l-11.2 72c0 1.6.8 2.4 2.4 2.4h11.2c1.6 0 3.2-1.6 4-3.2l11.2-70.4c0-1.6-.8-2.4-2.4-2.4h-12.8c-.8-.8-1.6 0-2.4 1.6" fill="#139ad6"></path>
    <path d="M92 197.2c-5.6-6.4-16-9.6-30.4-9.6h-40c-2.4 0-4.8 2.4-5.6 4.8L0 297.2c0 2.4 1.6 4 3.2 4H28l6.4-39.2v1.6c.8-2.4 3.2-4.8 5.6-4.8h12c23.2 0 40.8-9.6 46.4-36v-2.4c-.8 0-.8 0 0 0 .8-10.4-.8-16.8-6.4-23.2" fill="#263b80"></path>
    <path d="M97.6 220.4v2.4c-5.6 27.2-23.2 36-46.4 36h-12c-2.4 0-4.8 2.4-5.6 4.8l-8 48.8c0 1.6.8 3.2 3.2 3.2h20.8c2.4 0 4.8-1.6 4.8-4v-.8l4-24.8v-1.6c0-2.4 2.4-4 4.8-4h3.2c20 0 36-8 40-32 1.6-9.6.8-18.4-4-24-.8-1.6-2.4-3.2-4.8-4" fill="#139ad6"></path>
    <path d="M92 218c-.8 0-1.6-.8-2.4-.8s-1.6 0-2.4-.8c-3.2-.8-6.4-.8-10.4-.8H45.6c-.8 0-1.6 0-2.4.8-1.6.8-2.4 2.4-2.4 4L34.4 262v1.6c.8-2.4 3.2-4.8 5.6-4.8h12c23.2 0 40.8-9.6 46.4-36 0-.8 0-1.6.8-2.4-1.6-.8-2.4-1.6-4-1.6-2.4-.8-2.4-.8-3.2-.8" fill="#232c65"></path>
  </symbol>

  <symbol xmlns="http://www.w3.org/2000/svg" viewBox="0 0 448 448" id="rss">
    <circle cx="64" cy="384" r="64"></circle>
    <path d="M0 149.344v85.344c117.632 0 213.344 95.68 213.344 213.312h85.312c0-164.672-133.984-298.656-298.656-298.656z"></path>
    <path d="M0 0v85.344C200 85.344 362.688 248 362.688 448H448C448 200.96 247.04 0 0 0z"></path>
  </symbol>
  <symbol xmlns="http://www.w3.org/2000/svg" viewBox="0 0 512 512" id="twitter">
    <path d="M512 97.248c-19.04 8.352-39.328 13.888-60.48 16.576 21.76-12.992 38.368-33.408 46.176-58.016-20.288 12.096-42.688 20.64-66.56 25.408C411.872 60.704 384.416 48 354.464 48c-58.112 0-104.896 47.168-104.896 104.992 0 8.32.704 16.32 2.432 23.936-87.264-4.256-164.48-46.08-216.352-109.792-9.056 15.712-14.368 33.696-14.368 53.056 0 36.352 18.72 68.576 46.624 87.232-16.864-.32-33.408-5.216-47.424-12.928v1.152c0 51.008 36.384 93.376 84.096 103.136-8.544 2.336-17.856 3.456-27.52 3.456-6.72 0-13.504-.384-19.872-1.792 13.6 41.568 52.192 72.128 98.08 73.12-35.712 27.936-81.056 44.768-130.144 44.768-8.608 0-16.864-.384-25.12-1.44C46.496 446.88 101.6 464 161.024 464c193.152 0 298.752-160 298.752-298.688 0-4.64-.16-9.12-.384-13.568 20.832-14.784 38.336-33.248 52.608-54.496z"></path>
  </symbol>
</svg>